<?xml version="1.0" encoding="utf-8"?>
<!-- Generator: Adobe Illustrator 16.0.0, SVG Export Plug-In . SVG Version: 6.00 Build 0)  -->
<!DOCTYPE svg PUBLIC "-//W3C//DTD SVG 1.1//EN" "http://www.w3.org/Graphics/SVG/1.1/DTD/svg11.dtd">
<svg version="1.1"
	 id="svg16" inkscape:version="0.92.1 r15371" sodipodi:docname="bg_body.svg" xmlns:sodipodi="http://sodipodi.sourceforge.net/DTD/sodipodi-0.dtd" xmlns:dc="http://purl.org/dc/elements/1.1/" xmlns:rdf="http://www.w3.org/1999/02/22-rdf-syntax-ns#" xmlns:cc="http://creativecommons.org/ns#" xmlns:svg="http://www.w3.org/2000/svg" xmlns:inkscape="http://www.inkscape.org/namespaces/inkscape"
	 xmlns="http://www.w3.org/2000/svg" xmlns:xlink="http://www.w3.org/1999/xlink" x="0px" y="0px" width="509px" height="433px"
	 viewBox="-25.167 -23.833 509 433" enable-background="new -25.167 -23.833 509 433" xml:space="preserve">
<path opacity="0.08" enable-background="new    " d="M56.927,234.474c0-2.771-2.25-5.021-5.02-5.021
	c-1.491,0-2.834,0.657-3.754,1.695c-0.726-1.022-1.923-1.695-3.272-1.695c-1.537,0-2.912,0.876-3.583,2.231
	c-2.609,0.699-4.449,3.056-4.449,5.803c0,0.661,0.111,1.312,0.318,1.93c-3.29-0.322-6.543,0.824-8.895,3.178
	c-2.216,2.214-3.371,5.289-3.179,8.43c0.315,5.158,0.033,6.524-2.327,11.245c-0.193,0.387-0.118,0.853,0.188,1.16
	c0.305,0.305,0.77,0.38,1.16,0.188c4.524-2.263,6.009-2.556,11.346-2.228c3.146,0.192,6.218-0.966,8.43-3.179
	c2.087-2.086,3.235-4.858,3.235-7.808c0-0.389-0.02-0.773-0.059-1.153c0.586,0.188,1.205,0.286,1.831,0.286
	c2.745,0,5.101-1.841,5.801-4.449c1.356-0.671,2.229-2.044,2.229-3.583c0-1.349-0.669-2.546-1.692-3.274
	C56.271,237.309,56.927,235.967,56.927,234.474z M51.906,231.464c1.662,0,3.013,1.35,3.013,3.011c0,1.634-1.328,3.046-3.09,3.003
	c-0.309-0.01-0.598,0.125-0.796,0.358c-0.195,0.234-0.275,0.545-0.213,0.845c0.516,2.51-1.412,4.83-3.934,4.83
	c-0.744,0-1.438-0.206-2.039-0.56L48.6,239.2c0.393-0.393,0.393-1.026,0-1.42c-0.394-0.395-1.027-0.395-1.42,0l-3.754,3.751
	c-0.352-0.598-0.556-1.294-0.556-2.039c0-2.526,2.321-4.447,4.829-3.935c0.643,0.133,1.288-0.389,1.194-1.136
	C48.921,232.787,50.261,231.464,51.906,231.464z M38.854,237.487c0-1.955,1.405-3.616,3.339-3.943
	c0.368-0.065,0.674-0.327,0.787-0.682c0.269-0.837,1.032-1.397,1.898-1.397c1.106,0,2.007,0.899,2.007,2.008
	c-3.323,0-6.023,2.702-6.023,6.023c0,0.338,0.026,0.67,0.083,0.993c-0.4-0.195-0.809-0.365-1.225-0.51
	C39.162,239.269,38.854,238.394,38.854,237.487z M43.534,255.512c-0.281-0.083-2.272-0.146-4.756-1.344
	c-0.497-0.239-1.1-0.029-1.338,0.469c-0.241,0.5-0.032,1.1,0.468,1.34c1.279,0.617,2.625,1.059,4.014,1.316
	c-1.718,1.452-3.978,2.234-6.342,2.092c-4.566-0.282-6.657-0.1-9.815,1.241c1.423-3.278,1.605-5.253,1.333-9.726
	c-0.056-0.926,0.032-1.846,0.25-2.728c0.632,0.984,1.371,1.898,2.209,2.728c0.393,0.391,1.03,0.389,1.419-0.007
	c0.39-0.395,0.388-1.03-0.006-1.419c-1.084-1.076-1.979-2.309-2.664-3.668c0.38-0.65,0.844-1.256,1.387-1.799
	c1.074-1.077,2.357-1.821,3.719-2.24c0.268,0.97,0.626,1.912,1.072,2.815c0.791,1.6,1.833,3.049,3.104,4.307
	c0.394,0.393,1.03,0.391,1.42-0.006c0.392-0.395,0.387-1.03-0.007-1.42c-1.113-1.101-2.026-2.373-2.717-3.771
	c-0.366-0.741-0.663-1.512-0.891-2.301c2.572-0.195,5.163,0.703,7.077,2.614C45.645,247.19,45.915,252.053,43.534,255.512z
	 M53.521,243.399c-0.356,0.115-0.619,0.417-0.683,0.787c-0.329,1.934-1.989,3.339-3.944,3.339c-0.864,0-1.703-0.282-2.394-0.792
	c-0.155-0.442-0.336-0.871-0.547-1.288c0.305,0.047,0.617,0.07,0.932,0.07c3.322,0,6.026-2.702,6.026-6.023
	c1.103,0,2.007,0.9,2.007,2.008C54.919,242.368,54.357,243.131,53.521,243.399z"/>
<path opacity="0.08" enable-background="new    " d="M310.508,18.433c0-2.771-2.253-5.02-5.021-5.02
	c-1.494,0-2.836,0.656-3.757,1.695c-0.727-1.023-1.924-1.695-3.271-1.695c-1.536,0-2.913,0.875-3.584,2.23
	c-2.606,0.7-4.448,3.057-4.448,5.802c0,0.663,0.111,1.313,0.316,1.93c-3.288-0.322-6.54,0.825-8.894,3.178
	c-2.217,2.214-3.367,5.29-3.176,8.429c0.312,5.159,0.028,6.525-2.329,11.247c-0.193,0.387-0.118,0.852,0.189,1.159
	c0.305,0.305,0.77,0.381,1.158,0.188c4.524-2.263,6.008-2.556,11.346-2.227c3.146,0.193,6.217-0.967,8.433-3.179
	c2.086-2.086,3.235-4.86,3.235-7.809c0-0.388-0.022-0.772-0.062-1.152c0.588,0.188,1.205,0.285,1.831,0.285
	c2.746,0,5.102-1.84,5.802-4.449c1.355-0.67,2.231-2.043,2.231-3.583c0-1.35-0.672-2.545-1.694-3.273
	C309.852,21.269,310.508,19.927,310.508,18.433z M305.488,15.424c1.66,0,3.012,1.349,3.012,3.011c0,1.634-1.329,3.047-3.089,3.003
	c-0.309-0.009-0.599,0.125-0.797,0.359c-0.195,0.234-0.273,0.544-0.213,0.845c0.517,2.51-1.411,4.829-3.933,4.829
	c-0.741,0-1.439-0.206-2.039-0.559l3.752-3.751c0.394-0.393,0.394-1.026,0-1.42c-0.392-0.394-1.026-0.394-1.42,0l-3.751,3.751
	c-0.354-0.598-0.559-1.293-0.559-2.037c0-2.527,2.323-4.448,4.829-3.935c0.642,0.132,1.287-0.389,1.193-1.136
	C302.502,16.746,303.841,15.424,305.488,15.424z M292.435,21.447c0-1.956,1.405-3.617,3.339-3.944
	c0.369-0.064,0.675-0.328,0.787-0.682c0.27-0.836,1.033-1.396,1.899-1.396c1.104,0,2.006,0.9,2.006,2.008
	c-3.321,0-6.022,2.703-6.022,6.024c0,0.337,0.027,0.67,0.081,0.992c-0.399-0.195-0.807-0.365-1.224-0.51
	C292.742,23.229,292.435,22.354,292.435,21.447z M297.115,39.472c-0.282-0.082-2.271-0.146-4.755-1.342
	c-0.498-0.241-1.103-0.031-1.341,0.467c-0.241,0.5-0.032,1.099,0.468,1.339c1.278,0.619,2.625,1.059,4.014,1.317
	c-1.719,1.452-3.979,2.235-6.344,2.091c-4.566-0.28-6.656-0.1-9.815,1.241c1.423-3.277,1.605-5.252,1.333-9.724
	c-0.056-0.927,0.032-1.847,0.251-2.729c0.632,0.984,1.37,1.898,2.211,2.729c0.393,0.39,1.028,0.388,1.418-0.008
	c0.391-0.396,0.388-1.03-0.005-1.419c-1.086-1.076-1.98-2.308-2.664-3.667c0.38-0.651,0.844-1.256,1.387-1.798
	c1.075-1.077,2.358-1.822,3.719-2.242c0.269,0.97,0.626,1.913,1.072,2.815c0.789,1.601,1.833,3.048,3.104,4.308
	c0.396,0.392,1.028,0.39,1.42-0.006c0.394-0.394,0.39-1.029-0.007-1.419c-1.11-1.104-2.025-2.373-2.717-3.775
	c-0.365-0.739-0.662-1.509-0.891-2.3c2.571-0.195,5.163,0.703,7.076,2.615C299.226,31.149,299.495,36.012,297.115,39.472z
	 M307.103,27.36c-0.357,0.115-0.62,0.417-0.684,0.787c-0.328,1.935-1.99,3.338-3.944,3.338c-0.863,0-1.703-0.281-2.393-0.792
	c-0.155-0.44-0.337-0.87-0.545-1.288c0.304,0.046,0.614,0.07,0.93,0.07c3.321,0,6.025-2.702,6.025-6.022
	c1.105,0,2.007,0.9,2.007,2.008C308.499,26.328,307.938,27.092,307.103,27.36z"/>
<path opacity="0.08" enable-background="new    " d="M183.591,154.742c1.808-1.812,2.313-4.376,1.224-6.247
	c-1.479-2.539,3.216-10.526-5.298-19.04c-8.526-8.526-16.493-3.815-19.041-5.298c-1.872-1.09-4.438-0.587-6.248,1.223
	c-1.81,1.812-2.315,4.377-1.228,6.248c1.479,2.537-3.212,10.526,5.302,19.041c8.522,8.523,16.49,3.814,19.041,5.298
	C179.213,157.054,181.781,156.553,183.591,154.742z M178.899,153.3c-4.29-2.496-10.662,2.934-18.409-4.817
	c-7.753-7.75-2.32-14.124-4.818-18.41c-0.851-1.459,1.755-4.12,3.252-3.248c4.287,2.495,10.658-2.935,18.408,4.817
	c7.753,7.749,2.321,14.124,4.815,18.41C183.001,151.513,180.392,154.169,178.899,153.3z M178.337,142.368
	c-0.706,0.088-1.348-0.412-1.437-1.118c-0.441-3.529-5.65-8.738-9.179-9.179c-0.708-0.089-1.202-0.734-1.115-1.436
	c0.084-0.706,0.729-1.206,1.434-1.118c4.716,0.589,10.825,6.704,11.417,11.414C179.542,141.637,179.043,142.28,178.337,142.368
	L178.337,142.368z"/>
<path opacity="0.08" enable-background="new    " d="M50.349,24.99c-0.053-0.294-0.124-0.582-0.211-0.865l2.938-0.021
	c0.927-0.006,1.797-0.375,2.445-1.035c0.649-0.66,1.004-1.533,0.998-2.461c-0.005-0.924-0.374-1.794-1.033-2.444
	c-0.523-0.516-1.184-0.845-1.896-0.957c0.033-1.041-0.398-2.084-1.253-2.79c-0.857-0.707-1.962-0.937-2.979-0.707
	c-0.243-0.679-0.691-1.265-1.296-1.682c-0.763-0.524-1.686-0.721-2.597-0.555c-0.912,0.168-1.7,0.68-2.228,1.444
	c-0.525,0.763-0.723,1.684-0.553,2.597l0.532,2.892c-0.293-0.033-0.591-0.049-0.889-0.047c-2.829,0.034-5.656,1.734-8.399,5.054
	c-2.791,3.375-5.568,8.26-7.438,13.068c-0.877,2.265-1.473,4.32-1.714,5.945c-0.321,2.136-0.036,3.54,0.868,4.288
	c0.908,0.75,2.337,0.764,4.379,0.048c1.549-0.545,3.455-1.516,5.513-2.806c4.372-2.743,8.646-6.395,11.434-9.768
	C49.715,30.873,50.852,27.777,50.349,24.99z M45.101,15.072c-0.048-0.265,0.008-0.536,0.164-0.759
	c0.153-0.223,0.385-0.374,0.651-0.422c0.265-0.049,0.535,0.009,0.758,0.162c0.222,0.153,0.374,0.384,0.422,0.65l0.197,1.073
	c0.085,0.454,0.417,0.825,0.86,0.956c0.445,0.131,0.923,0.001,1.242-0.336c0.361-0.387,0.969-0.424,1.382-0.083
	c0.41,0.338,0.489,0.94,0.176,1.371c-0.271,0.376-0.308,0.871-0.095,1.282c0.211,0.412,0.637,0.667,1.099,0.664l1.092-0.008
	c0.269-0.001,0.525,0.101,0.719,0.291c0.192,0.191,0.3,0.443,0.304,0.715c0.001,0.271-0.103,0.526-0.293,0.719
	c-0.189,0.192-0.444,0.299-0.714,0.304l-4.243,0.032c-0.386-0.48-0.835-0.936-1.354-1.364c-0.518-0.428-1.052-0.785-1.594-1.074
	L45.101,15.072z M34.593,41.653c-1.854,1.189-3.582,2.107-4.991,2.652c-1.452,0.562-2.175,0.569-2.383,0.513
	c-0.093-0.196-0.223-0.906,0.055-2.438c0.271-1.486,0.846-3.354,1.664-5.401c0.501-1.253,1.066-2.511,1.675-3.738l2.262,1.869
	c0.525,0.432,1.296,0.357,1.729-0.164c0.435-0.522,0.359-1.296-0.163-1.729l-2.658-2.197c0.438-0.788,0.892-1.553,1.355-2.287
	l2.975,2.459c0.525,0.433,1.297,0.358,1.729-0.163c0.434-0.523,0.358-1.298-0.164-1.729l-3.164-2.614
	c0.436-0.606,0.873-1.177,1.31-1.705c0.104-0.125,0.208-0.246,0.309-0.365l3.218,2.658c0.521,0.433,1.294,0.358,1.726-0.164
	c0.433-0.522,0.358-1.295-0.164-1.728l-3.052-2.521c1.546-1.341,3.052-2.026,4.499-2.043c1.213-0.015,2.403,0.455,3.54,1.393
	c3.071,2.538,2.795,6.043-0.82,10.419C42.544,35.698,38.622,39.07,34.593,41.653z"/>
<path opacity="0.08" enable-background="new    " d="M302.42,243.865c-0.053-0.295-0.122-0.583-0.21-0.866l2.938-0.021
	c0.926-0.007,1.796-0.374,2.446-1.033c0.648-0.662,1.004-1.534,0.998-2.463c-0.007-0.925-0.374-1.795-1.034-2.443
	c-0.523-0.517-1.183-0.846-1.896-0.958c0.031-1.042-0.397-2.083-1.252-2.789c-0.858-0.707-1.961-0.937-2.978-0.707
	c-0.244-0.68-0.692-1.264-1.297-1.682c-0.764-0.524-1.687-0.722-2.598-0.554c-0.91,0.168-1.7,0.68-2.227,1.443
	c-0.525,0.763-0.724,1.684-0.553,2.596l0.532,2.893c-0.294-0.033-0.591-0.048-0.889-0.046c-2.829,0.032-5.656,1.733-8.399,5.054
	c-2.79,3.375-5.568,8.26-7.438,13.067c-0.878,2.267-1.474,4.321-1.715,5.945c-0.32,2.135-0.034,3.539,0.868,4.29
	c0.907,0.749,2.338,0.764,4.38,0.047c1.548-0.545,3.454-1.517,5.513-2.806c4.371-2.741,8.646-6.396,11.432-9.769
	C301.785,249.746,302.923,246.651,302.42,243.865z M297.172,233.946c-0.049-0.265,0.009-0.536,0.164-0.76
	c0.151-0.222,0.385-0.373,0.651-0.42c0.264-0.051,0.535,0.009,0.758,0.161c0.223,0.154,0.374,0.386,0.422,0.65l0.196,1.072
	c0.086,0.454,0.418,0.823,0.861,0.957c0.446,0.13,0.923,0,1.241-0.337c0.364-0.387,0.97-0.425,1.383-0.083
	c0.41,0.339,0.49,0.941,0.176,1.372c-0.271,0.375-0.308,0.87-0.094,1.281c0.211,0.412,0.637,0.668,1.099,0.665l1.093-0.009
	c0.27-0.001,0.526,0.103,0.719,0.291c0.193,0.191,0.301,0.446,0.304,0.714c0.002,0.271-0.102,0.528-0.293,0.72
	c-0.189,0.193-0.444,0.3-0.715,0.305l-4.242,0.031c-0.387-0.48-0.837-0.936-1.355-1.364c-0.517-0.429-1.052-0.784-1.594-1.073
	L297.172,233.946z M286.663,260.526c-1.854,1.191-3.582,2.107-4.989,2.653c-1.452,0.562-2.175,0.567-2.385,0.513
	c-0.091-0.195-0.223-0.905,0.056-2.438c0.271-1.484,0.846-3.353,1.664-5.399c0.501-1.255,1.065-2.513,1.674-3.738l2.263,1.868
	c0.526,0.434,1.297,0.357,1.729-0.164c0.437-0.521,0.359-1.295-0.164-1.728l-2.658-2.198c0.443-0.785,0.894-1.553,1.355-2.284
	l2.976,2.457c0.525,0.434,1.296,0.358,1.729-0.164c0.433-0.523,0.357-1.297-0.164-1.73l-3.164-2.613
	c0.438-0.606,0.872-1.176,1.31-1.705c0.101-0.124,0.206-0.246,0.308-0.365l3.216,2.658c0.524,0.432,1.296,0.358,1.729-0.163
	c0.434-0.523,0.357-1.297-0.164-1.729l-3.053-2.521c1.548-1.342,3.053-2.027,4.499-2.043c1.213-0.016,2.403,0.454,3.538,1.392
	c3.073,2.538,2.795,6.043-0.819,10.42C294.614,254.572,290.693,257.944,286.663,260.526z"/>
<path opacity="0.08" enable-background="new    " d="M183.334,359.053c-2.107-0.747-3.821-0.398-5.087,0.313
	c0.161-1.522,0.634-3.369,1.917-4.559c0.48-0.444,0.509-1.198,0.063-1.679c-0.446-0.482-1.199-0.509-1.68-0.064
	c-1.653,1.534-2.34,3.681-2.603,5.517v-7.568c0-1.022-0.191-1.999-0.54-2.899c1.167-0.513,1.893-0.982,1.968-1.033
	c0.354-0.233,0.557-0.64,0.531-1.062c-0.023-0.425-0.272-0.804-0.654-0.993l-2.509-1.254c0.144-0.322,0.224-0.677,0.224-1.051v-1.11
	c0-1.429-1.166-2.595-2.599-2.595h-14.84c-1.431,0-2.598,1.163-2.598,2.596v1.109c0,0.374,0.079,0.729,0.223,1.051l-2.507,1.254
	c-0.31,0.156-0.539,0.437-0.624,0.771c-0.083,0.334-0.021,0.691,0.177,0.974c0.4,0.574,1.126,1.31,2.108,1.874
	c-0.232,0.749-0.358,1.546-0.358,2.37v17.89c0,2.137,1.738,3.874,3.873,3.874h14.247c0.008,0,0.015-0.001,0.023-0.001
	c0.203,0.104,0.409,0.198,0.625,0.277c0.82,0.304,1.618,0.405,2.321,0.405c0.866,0,1.583-0.152,2.014-0.272
	c0.787,0.218,2.518,0.545,4.339-0.132c3.306-1.235,5.062-5.414,5.037-8.719C186.405,361.669,185.279,359.743,183.334,359.053z
	 M172.508,345.319l1.557,0.777c-1.676,0.681-4.224,1.359-6.917,0.793c-3.399-0.718-6.166-0.709-8.457,0.029
	c-1.515,0.491-2.707,0.024-3.492-0.514l2.175-1.09L172.508,345.319L172.508,345.319z M157.304,341.613
	c0-0.118,0.098-0.217,0.218-0.217h14.84c0.121,0,0.217,0.099,0.217,0.217v1.109c0,0.119-0.097,0.216-0.217,0.216h-14.84
	c-0.12,0-0.218-0.097-0.218-0.216V341.613L157.304,341.613z M157.44,349.505c0.624,0,1.288-0.097,1.983-0.321
	c1.884-0.605,4.25-0.596,7.237,0.031c2.402,0.505,4.671,0.211,6.5-0.302c0.258,0.65,0.402,1.359,0.402,2.1v1.734h-17.239v-1.734
	c0-0.546,0.078-1.075,0.224-1.578C156.835,349.481,157.13,349.505,157.44,349.505z M156.323,368.91v-13.781h17.239v3.53
	c-0.833-0.071-1.767,0.032-2.792,0.396c-1.944,0.69-3.07,2.615-3.092,5.286c-0.016,1.982,0.611,4.279,1.825,6.066h-11.684
	C156.994,370.406,156.323,369.734,156.323,368.91z M180.56,370.83c-1.529,0.572-3.034,0.023-3.074,0.007
	c-0.28-0.109-0.585-0.111-0.865,0c-0.015,0.006-1.53,0.569-3.076-0.007c-2.182-0.812-3.508-3.991-3.49-6.468
	c0.005-0.766,0.165-2.592,1.508-3.068c0.555-0.196,1.056-0.277,1.5-0.277c1.912,0,2.833,1.491,2.946,1.691
	c0.212,0.381,0.608,0.616,1.042,0.616c0.438,0,0.833-0.235,1.045-0.616c0.056-0.102,1.411-2.49,4.443-1.414
	c1.344,0.477,1.503,2.303,1.511,3.068C184.068,366.839,182.74,370.018,180.56,370.83z"/>
<path opacity="0.08" enable-background="new    " d="M432.985,141.104c-2.104-0.747-3.821-0.398-5.087,0.313
	c0.161-1.523,0.636-3.37,1.917-4.556c0.48-0.446,0.508-1.2,0.062-1.68c-0.445-0.481-1.197-0.51-1.681-0.063
	c-1.653,1.533-2.34,3.679-2.602,5.516v-7.568c0-1.023-0.191-2-0.54-2.9c1.167-0.512,1.894-0.982,1.968-1.033
	c0.354-0.233,0.558-0.639,0.533-1.061c-0.023-0.424-0.274-0.803-0.654-0.993l-2.51-1.255c0.145-0.322,0.225-0.678,0.225-1.051v-1.11
	c0-1.43-1.166-2.596-2.599-2.596h-14.841c-1.43,0-2.596,1.165-2.596,2.597v1.109c0,0.373,0.076,0.728,0.221,1.051l-2.507,1.255
	c-0.311,0.154-0.539,0.436-0.621,0.771c-0.086,0.335-0.024,0.69,0.175,0.974c0.399,0.572,1.126,1.309,2.107,1.874
	c-0.232,0.75-0.358,1.545-0.358,2.369v17.893c0,2.136,1.738,3.873,3.872,3.873h14.247c0.008,0,0.016-0.001,0.024-0.001
	c0.201,0.105,0.407,0.199,0.623,0.277c0.819,0.305,1.618,0.407,2.321,0.407c0.865,0,1.584-0.153,2.015-0.273
	c0.786,0.218,2.518,0.546,4.338-0.133c3.306-1.233,5.062-5.412,5.038-8.718C436.057,143.72,434.931,141.793,432.985,141.104z
	 M422.161,127.37l1.555,0.777c-1.676,0.68-4.225,1.359-6.916,0.794c-3.399-0.718-6.166-0.707-8.457,0.03
	c-1.514,0.49-2.706,0.024-3.493-0.514l2.177-1.088L422.161,127.37L422.161,127.37z M406.954,123.665
	c0-0.121,0.098-0.218,0.217-0.218h14.841c0.121,0,0.218,0.098,0.218,0.218v1.108c0,0.12-0.097,0.218-0.218,0.218h-14.841
	c-0.119,0-0.217-0.098-0.217-0.218V123.665L406.954,123.665z M407.092,131.557c0.624,0,1.287-0.097,1.983-0.321
	c1.883-0.606,4.248-0.596,7.236,0.032c2.402,0.505,4.673,0.211,6.502-0.302c0.257,0.651,0.399,1.359,0.399,2.1v1.734h-17.239v-1.734
	c0-0.547,0.078-1.076,0.224-1.577C406.485,131.532,406.783,131.557,407.092,131.557z M405.973,150.959v-13.782h17.239v3.532
	c-0.833-0.071-1.768,0.031-2.792,0.396c-1.945,0.689-3.07,2.616-3.091,5.286c-0.018,1.983,0.61,4.279,1.825,6.066h-11.687
	C406.646,152.457,405.973,151.784,405.973,150.959z M430.21,152.88c-1.529,0.572-3.033,0.023-3.073,0.006
	c-0.281-0.108-0.586-0.109-0.865,0c-0.017,0.006-1.53,0.57-3.077-0.006c-2.18-0.811-3.507-3.99-3.49-6.469
	c0.007-0.763,0.166-2.589,1.51-3.067c0.555-0.197,1.056-0.276,1.498-0.276c1.913,0,2.835,1.49,2.947,1.691
	c0.212,0.38,0.607,0.617,1.042,0.617c0.438,0,0.833-0.236,1.045-0.617c0.056-0.103,1.41-2.49,4.445-1.415
	c1.341,0.478,1.503,2.304,1.509,3.067C433.719,148.89,432.393,152.069,430.21,152.88z"/>
<g opacity="0.08" enable-background="new    ">
	<g>
		<path d="M437.101,354.815h-3.018c1.299-0.746,2.175-2.148,2.175-3.751c0-1.664-0.944-3.147-2.38-3.866
			c0.249-0.551,0.376-1.148,0.376-1.769c0-2.383-1.941-4.325-4.327-4.325c-0.75,0-1.472,0.191-2.115,0.552
			c-0.846-0.594-1.853-0.917-2.896-0.917c-0.069,0-0.141,0.004-0.211,0.007c-0.767-2.238-2.907-3.803-5.321-3.803
			c-2.174,0-4.142,1.258-5.068,3.188c-0.171-0.018-0.35-0.023-0.522-0.023c-2.286,0-4.314,1.382-5.181,3.44
			c-0.156-0.048-0.31-0.088-0.47-0.124c0.082-0.929,0.377-1.64,0.879-2.119c0.438-0.416,0.877-0.505,0.898-0.507l-0.013,0.001l0,0
			c0.155-0.022,0.301-0.096,0.408-0.205c0.136-0.134,0.213-0.323,0.213-0.514c0-0.191-0.077-0.378-0.213-0.515
			c-0.135-0.134-0.322-0.212-0.514-0.212c-0.04,0-0.08,0.005-0.118,0.012l0,0c-0.435,0.068-1.022,0.308-1.568,0.8v-2.495
			c0-0.401-0.325-0.727-0.727-0.727h-1.737c-0.401,0-0.728,0.325-0.728,0.727v2.717c-0.835-1.024-1.737-1.624-1.807-1.67
			c-0.337-0.216-0.784-0.122-1.004,0.213c-0.221,0.334-0.128,0.784,0.208,1.008c0.024,0.016,2.225,1.485,2.551,3.604
			c-2.461,0.736-4.244,2.897-4.244,5.443c0,1.057,0.604,3.595,1.196,5.835h-0.469c-0.402,0-0.728,0.326-0.728,0.728v17.873
			c0,0.401,0.324,0.727,0.728,0.727h35.751c0.402,0,0.728-0.324,0.728-0.727v-17.873
			C437.829,355.141,437.504,354.815,437.101,354.815z M413.795,341.562c0.278,0,0.558,0.026,0.832,0.083
			c0.354,0.07,0.708-0.129,0.829-0.471c0.586-1.661,2.168-2.777,3.928-2.777c1.717,0,3.253,1.07,3.873,2.626
			c-1.963,0.686-3.375,2.557-3.375,4.751c0,0.398,0.326,0.727,0.728,0.727c0.398,0,0.727-0.328,0.727-0.727
			c0-1.973,1.605-3.582,3.579-3.582c0.875,0,1.719,0.324,2.372,0.905c0.259,0.228,0.644,0.244,0.92,0.035
			c0.497-0.375,1.095-0.574,1.718-0.574c1.584,0,2.874,1.289,2.874,2.872c0,0.624-0.198,1.213-0.569,1.712
			c-0.143,0.195-0.18,0.448-0.102,0.677c0.082,0.231,0.271,0.402,0.508,0.462c1.275,0.323,2.166,1.468,2.166,2.786
			c0,1.58-1.289,2.871-2.871,2.871c-0.18,0-0.362-0.02-0.544-0.053c-0.351-0.067-0.7,0.131-0.82,0.469
			c-0.057,0.162-0.129,0.313-0.213,0.463h-0.915l2.975-4.267c0.114-0.162,0.156-0.358,0.119-0.549
			c-0.038-0.193-0.149-0.36-0.312-0.471l-2.118-1.409c-0.165-0.111-0.368-0.147-0.562-0.104c-0.193,0.044-0.362,0.163-0.463,0.334
			l-1.058,1.756l0.867-4.388c0.077-0.39-0.175-0.774-0.566-0.853l-1.85-0.38c-0.19-0.042-0.392,0-0.551,0.109
			c-0.164,0.107-0.274,0.277-0.31,0.47l-0.237,1.274h-1.697c-0.397,0-0.725,0.324-0.725,0.728v4.183
			c-0.486-2.473-2.665-4.346-5.276-4.346c-1.178,0-2.296,0.374-3.234,1.079c-0.772,0.582-1.379,1.376-1.745,2.269
			c0.093-0.545,0.139-0.962,0.139-1.265c0-0.986-0.269-1.912-0.738-2.725c0.383-1.039,1.374-1.744,2.497-1.744
			c0.178,0,0.356,0.019,0.534,0.054c0.351,0.072,0.708-0.128,0.826-0.471c0.157-0.441,0.428-0.837,0.784-1.144
			c0.307-0.26,0.341-0.72,0.081-1.024c-0.262-0.305-0.723-0.34-1.025-0.078c-0.399,0.342-0.728,0.755-0.972,1.218
			c-0.075-0.007-0.151-0.009-0.229-0.009c-1.446,0-2.75,0.759-3.49,1.938c-0.348-0.332-0.732-0.625-1.154-0.869
			C410.585,342.591,412.095,341.562,413.795,341.562z M427.193,354.282l2.737-4.529l0.868,0.578l-3.131,4.486h-0.58L427.193,354.282
			z M426.284,351.383v-2.017c0.002-0.015,0.007-0.03,0.011-0.047l0.607-3.263l0.417,0.085L426.284,351.383z M424.397,353.554
			c0.002-0.024,0.004-0.054,0.004-0.083v-5.681h0.43v7.025h-0.229c0.002-0.045,0.003-0.093,0.003-0.139
			C424.604,354.284,424.53,353.904,424.397,353.554z M414.432,350.163c-0.025,0-0.042,0-0.067,0
			c0.713-1.101,1.955-1.811,3.308-1.811c1.92,0,3.521,1.385,3.857,3.211c-1.005,0.007-1.896,0.513-2.446,1.287
			C418.152,351.245,416.415,350.163,414.432,350.163z M418.286,354.815h-7.596h-0.115c0.342-1.817,1.94-3.199,3.856-3.199
			C416.346,351.616,417.945,352.998,418.286,354.815z M421.553,353.017c0.879,0,1.597,0.748,1.597,1.662
			c0,0.048-0.002,0.094-0.004,0.139h-3.187c-0.003-0.045-0.006-0.091-0.006-0.139C419.953,353.765,420.671,353.017,421.553,353.017z
			 M406.376,338.392h0.291v4.873c-0.098,0-0.194,0.002-0.291,0.006V338.392z M402.12,348.407c0.046,0.008,0.093,0.016,0.14,0.016
			h3.593c0.398,0,0.727-0.325,0.727-0.728s-0.325-0.728-0.727-0.728h-3.223c0.786-1.336,2.327-2.248,4.098-2.248
			c2.564,0,4.653,1.911,4.653,4.262c0,0.191-0.03,0.539-0.146,1.185h-2.886c-0.401,0-0.727,0.325-0.727,0.727
			c0,0.403,0.325,0.728,0.727,0.728h2.412c-0.878,0.826-1.482,1.945-1.654,3.199h-5.782c-0.793-2.964-1.244-5.075-1.244-5.834
			C402.076,348.787,402.094,348.596,402.12,348.407z M436.375,360.774h-6.396c-0.398,0-0.727,0.325-0.727,0.726
			c0,0.401,0.327,0.728,0.727,0.728h6.396v4.506h-22.917c-0.4,0-0.727,0.325-0.727,0.728c0,0.401,0.326,0.727,0.727,0.727h22.917
			v4.504h-34.299v-4.504h6.396c0.398,0,0.727-0.326,0.727-0.727s-0.327-0.728-0.727-0.728h-6.396v-4.506h22.917
			c0.401,0,0.728-0.325,0.728-0.728c0-0.4-0.325-0.726-0.728-0.726h-22.917v-4.506h0.688h33.608L436.375,360.774L436.375,360.774z"
			/>
	</g>
</g>
</svg>
