<?xml version="1.0" encoding="utf-8"?>
<!-- Generator: Adobe Illustrator 16.0.0, SVG Export Plug-In . SVG Version: 6.00 Build 0)  -->
<!DOCTYPE svg PUBLIC "-//W3C//DTD SVG 1.1//EN" "http://www.w3.org/Graphics/SVG/1.1/DTD/svg11.dtd">
<svg version="1.1" id="Calque_3" xmlns="http://www.w3.org/2000/svg" xmlns:xlink="http://www.w3.org/1999/xlink" x="0px" y="0px"
	 width="234.667px" height="260px" viewBox="7.667 -9.669 234.667 260" enable-background="new 7.667 -9.669 234.667 260"
	 xml:space="preserve">
<path fill="#FFFFFF" d="M231.161,133.444c0,57.987-46.992,104.995-104.953,104.995c-57.962,0-104.953-47.008-104.953-104.995
	c0-57.988,46.99-104.995,104.953-104.995C184.169,28.449,231.161,75.457,231.161,133.444z"/>
<g>
	<path fill="#96BD0D" d="M225.856,100.031c-2.218-6.765-5.023-13.022-8.24-18.655c-3.23-5.627-6.803-10.662-10.498-15.098
		c-7.393-8.894-15.235-15.357-22.097-19.959c-6.889-4.596-12.772-7.418-16.834-9.158c-0.632-0.282-1.206-0.522-1.75-0.744
		l0.007-0.024c-14.295-9.47-22.375,3.148-22.375,3.148c14.007,9.33,16.666-2.547,22.34-3.045v-0.006
		c0.541,0.231,1.109,0.479,1.732,0.771c4.03,1.801,9.859,4.715,16.645,9.402c6.758,4.692,14.453,11.248,21.641,20.182
		c3.594,4.458,7.049,9.499,10.152,15.114c3.124,5.598,5.962,11.75,8.139,18.446c4.437,13.34,6.441,28.819,4.541,44.858
		c-0.967,8.009-2.776,16.145-5.699,24.094c-2.95,7.931-6.852,15.727-11.832,22.979c-9.905,14.538-24,26.941-40.621,35.039
		c-16.623,8.075-35.724,11.638-54.426,9.907c-18.693-1.757-36.887-8.551-51.73-19.595c-14.877-10.959-26.525-25.707-33.569-41.829
		c-7.164-16.091-9.846-33.397-8.669-49.467c0.077-1.004,0.123-2.009,0.226-3.004c0.119-0.994,0.238-1.985,0.357-2.972l0.179-1.479
		c0.032-0.235,0.051-0.517,0.096-0.711l0.138-0.732c0.182-0.976,0.366-1.947,0.546-2.916c0.183-0.968,0.363-1.933,0.544-2.893
		c0.182-0.96,0.335-1.926,0.621-2.843c0.507-1.855,1.01-3.694,1.509-5.519c0.429-1.845,1.182-3.582,1.788-5.343
		c0.317-0.876,0.633-1.749,0.948-2.617c0.311-0.871,0.612-1.74,1.02-2.561c1.545-3.318,2.898-6.655,4.718-9.675
		c6.816-12.319,15.324-22.295,24.058-29.69c1.111-0.904,2.205-1.793,3.279-2.668c1.074-0.876,2.115-1.757,3.241-2.484
		c1.1-0.763,2.181-1.512,3.241-2.246c1.068-0.722,2.076-1.497,3.17-2.083c2.146-1.244,4.19-2.469,6.172-3.584
		c2.049-0.992,4.001-1.938,5.855-2.836c0.466-0.219,0.915-0.458,1.378-0.653c0.466-0.183,0.926-0.363,1.38-0.541
		c0.908-0.355,1.789-0.7,2.644-1.035c1.717-0.647,3.292-1.362,4.844-1.768c1.532-0.465,2.951-0.895,4.251-1.289
		c0.649-0.197,1.271-0.385,1.861-0.564c0.59-0.176,1.17-0.269,1.707-0.396c2.223-0.484,3.901-0.85,5.018-1.094
		C118.762,47,141.846,37.49,141.846,37.49c21.454-8.82,17.056-39.254,17.056-39.254c-0.205,7.24-21.485,10.28-21.485,10.28
		c-24.29,3.285-29.978,21.597-29.978,21.597c0.014,0.021,0.031,0.04,0.045,0.062c-1.121,0.226-2.802,0.565-5.025,1.013
		c-0.541,0.12-1.122,0.203-1.717,0.37c-0.593,0.17-1.217,0.348-1.872,0.534c-1.308,0.374-2.736,0.782-4.279,1.224
		c-1.564,0.383-3.151,1.074-4.883,1.695c-0.863,0.323-1.753,0.654-2.669,0.997c-0.459,0.171-0.924,0.345-1.395,0.52
		c-0.467,0.188-0.922,0.421-1.394,0.634c-1.876,0.873-3.852,1.792-5.925,2.756c-2.009,1.087-4.083,2.287-6.262,3.504
		c-1.111,0.575-2.136,1.336-3.223,2.046c-1.079,0.723-2.178,1.459-3.298,2.21c-1.146,0.715-2.209,1.585-3.304,2.451
		c-1.099,0.864-2.214,1.742-3.348,2.636c-1.169,0.854-2.192,1.912-3.303,2.904c-1.097,1.01-2.21,2.035-3.338,3.074
		c-1.104,1.066-2.124,2.247-3.211,3.39c-1.056,1.173-2.212,2.291-3.226,3.555c-1.004,1.274-2.021,2.564-3.052,3.87
		c-0.514,0.654-1.03,1.312-1.551,1.974c-0.464,0.702-0.931,1.409-1.4,2.119c-0.94,1.42-1.892,2.858-2.852,4.311
		c-0.923,1.477-1.723,3.049-2.604,4.594c-1.842,3.054-3.212,6.43-4.774,9.787c-0.411,0.831-0.717,1.71-1.031,2.589
		c-0.319,0.88-0.638,1.761-0.959,2.648c-0.613,1.783-1.371,3.533-1.812,5.412c-0.506,1.856-1.018,3.728-1.533,5.614
		c-0.29,0.94-0.441,1.9-0.624,2.861c-0.181,0.96-0.361,1.925-0.543,2.894c-0.182,0.968-0.364,1.94-0.547,2.915l-0.137,0.733
		c-0.061,0.29-0.069,0.508-0.105,0.766l-0.181,1.494c-0.121,0.999-0.241,2-0.361,3.006c-0.104,1.006-0.15,2.023-0.229,3.039
		c-1.19,16.251,1.523,33.76,8.769,50.032c7.124,16.308,18.903,31.224,33.954,42.308c14.998,11.171,33.45,18.056,52.331,19.821
		c18.917,1.754,38.243-1.853,55.056-10.021c16.813-8.188,31.066-20.734,41.086-35.438c5.038-7.338,8.984-15.222,11.969-23.243
		c2.958-8.043,4.79-16.281,5.764-24.366C232.368,129.184,230.341,113.523,225.856,100.031z"/>
	<path fill="#FFFFFF" d="M111.142,29.57c0,0,0.678-0.022,1.857-0.135c0.588-0.039,1.303-0.14,2.119-0.229
		c0.406-0.06,0.838-0.125,1.296-0.192c0.457-0.055,0.94-0.086,1.438-0.164c1.003-0.124,2.087-0.28,3.224-0.498
		c1.146-0.176,2.329-0.483,3.562-0.751c1.222-0.316,2.48-0.661,3.744-1.06c1.242-0.453,2.545-0.819,3.769-1.38l1.858-0.781
		c0.614-0.265,1.196-0.596,1.792-0.887c0.588-0.302,1.171-0.602,1.75-0.897c0.552-0.34,1.098-0.676,1.635-1.005
		c0.534-0.336,1.072-0.643,1.574-0.983c0.485-0.362,0.962-0.716,1.424-1.061c0.466-0.344,0.917-0.679,1.351-1.004
		c0.428-0.333,0.8-0.708,1.181-1.039c0.724-0.701,1.46-1.265,2.083-1.8c0.582-0.58,1.091-1.085,1.509-1.5
		c0.842-0.836,1.323-1.314,1.323-1.314s-0.425,0.527-1.169,1.451c-0.375,0.464-0.829,1.028-1.35,1.674
		c-0.554,0.615-1.231,1.268-2.002,1.939c-0.388,0.335-0.765,0.716-1.198,1.054c-0.442,0.329-0.899,0.669-1.37,1.019
		c-0.47,0.35-0.951,0.708-1.446,1.075c-0.509,0.345-1.055,0.657-1.594,0.997c-0.544,0.335-1.099,0.675-1.657,1.019
		c-0.586,0.3-1.178,0.604-1.774,0.911c-0.602,0.294-1.191,0.629-1.812,0.898l-1.882,0.79c-1.239,0.566-2.554,0.939-3.812,1.397
		c-1.274,0.402-2.55,0.751-3.782,1.07c-1.247,0.271-2.442,0.58-3.6,0.758c-1.146,0.22-2.24,0.378-3.253,0.502
		c-1.008,0.175-1.948,0.183-2.776,0.218c-0.831,0-1.55,0.026-2.146,0.002C111.817,29.647,111.142,29.57,111.142,29.57z"/>
</g>
<g>
	<path fill="#673A15" d="M50.021,175.38c-1.292,0-2.339-1.046-2.339-2.341V139.9c0-7.932,6.456-14.389,14.39-14.389h3.012
		c7.934,0,14.39,6.457,14.39,14.389v33.139c0,1.295-1.046,2.341-2.338,2.341c-1.292,0-2.339-1.046-2.339-2.341v-15.202H52.36v15.202
		C52.36,174.334,51.312,175.38,50.021,175.38z M52.36,139.9v13.26h22.436V139.9c0-5.354-4.357-9.71-9.712-9.71h-3.012
		C56.716,130.19,52.36,134.547,52.36,139.9z"/>
	<path fill="#673A15" d="M126.059,173.039v-37.541l-16.058,23.797c-0.435,0.645-1.163,1.03-1.939,1.03
		c-0.778,0-1.504-0.386-1.939-1.03l-16.058-23.797v37.541c0,1.295-1.047,2.341-2.338,2.341c-1.292,0-2.34-1.046-2.34-2.341v-45.187
		c0-1.03,0.672-1.937,1.655-2.238c0.983-0.298,2.047,0.075,2.624,0.93l18.396,27.261l18.396-27.261
		c0.576-0.855,1.642-1.227,2.623-0.93c0.983,0.302,1.655,1.208,1.655,2.238v45.187c0,1.295-1.048,2.341-2.34,2.341
		C127.105,175.38,126.059,174.334,126.059,173.039z"/>
	<path fill="#673A15" d="M190.795,152.85l-12.725-0.11v20.3c0,1.295-1.049,2.341-2.338,2.341c-1.292,0-2.341-1.046-2.341-2.341
		v-45.187c0-1.294,1.049-2.341,2.341-2.341h15.062c8.201,0,14.39,5.863,14.39,13.638C205.185,146.447,198.459,152.85,190.795,152.85
		z M178.07,148.063l12.743,0.106c4.573,0,9.691-3.704,9.691-9.021c0-5.191-4.083-8.959-9.71-8.959H178.07V148.063z"/>
</g>
<g>
	<g>
		<path fill="#F19300" d="M76.196,100.929c0.181-0.375-0.319-1.682-1.5-3.92c-0.99-1.834-2.128-3.866-3.421-6.097
			c-0.074,0.057-0.159,0.103-0.251,0.136c-1.233,0.797-2.246,0.813-3.036,0.046l-0.286-0.369c-0.554-0.713-0.673-1.527-0.356-2.443
			c0.138-0.381,0.35-0.743,0.638-1.083c0.183-0.221,0.375-0.429,0.578-0.626c-0.127-0.215-0.255-0.432-0.383-0.648
			c-0.761-1.184-1.492-2.331-2.193-3.442c-1.341-2.035-2.505-3.792-3.493-5.272c-1.033-1.485-1.669-2.331-1.91-2.54
			c-0.195-0.914,0.042-1.627,0.706-2.143l0.332-0.257c0.933-0.524,1.696-0.583,2.286-0.176c-0.035,0.107,0.091,0.423,0.38,0.948
			c0.27,0.5,0.651,1.17,1.143,2.009c0.923,1.495,2.115,3.366,3.584,5.618c0.987,1.479,1.985,2.973,2.994,4.476
			c0.38-0.018,0.78-0.033,1.205-0.047c0.505,0.043,1.007,0.106,1.507,0.191c0.453-0.586,0.899-1.229,1.343-1.927
			c0.341-0.578,0.653-1.194,0.936-1.846c0.282-0.653,0.488-1.326,0.621-2.02c0.208-1.106,0.172-2.22-0.108-3.344
			c-0.297-1.147-0.976-2.276-2.035-3.388c-1.583-1.689-3.206-2.895-4.868-3.616c-1.643-0.698-3.199-1.028-4.669-0.992
			c-1.787,0.083-3.358,0.649-4.712,1.698c-1.354,1.049-2.304,2.416-2.851,4.1c-0.318,0.916-0.477,1.905-0.478,2.97
			c-0.02,1.041,0.117,2.135,0.416,3.283c0.503,1.974,1.446,3.214,2.824,3.722c1.397,0.534,2.395,0.194,2.993-1.018
			c0.476,0.459,0.972,1.001,1.493,1.621c0.52,0.622,0.742,1.238,0.665,1.849c-0.02,0.332-0.172,0.645-0.453,0.941
			c-0.281,0.298-0.738,0.573-1.37,0.825c-1.416,0.311-3.067-0.145-4.955-1.361c-0.699-0.444-1.324-1.023-1.879-1.736
			c-0.895-1.158-1.559-2.653-1.994-4.483c-0.682-2.663-0.313-5.136,1.109-7.419c0.954-1.567,2.145-2.903,3.573-4.009
			c0.664-0.517,1.368-0.98,2.108-1.397c1.311-0.698,2.686-1.212,4.126-1.541c1.485-0.322,2.951-0.413,4.396-0.274
			c1.36,0.129,2.703,0.488,4.026,1.078c1.317,0.634,2.524,1.532,3.621,2.691c0.215,0.228,0.418,0.465,0.611,0.71
			c0.666,0.862,1.12,1.752,1.358,2.67c0.337,1.197,0.426,2.409,0.27,3.631c-0.102,0.986-0.349,1.965-0.738,2.937
			c-0.365,0.953-0.812,1.85-1.342,2.693c-0.733,1.239-1.519,2.338-2.349,3.298c0.538,0.136,1.093,0.294,1.67,0.478
			c1.805,0.652,3.657,1.52,5.562,2.606c1.949,1.091,3.845,2.243,5.69,3.453c1.189,0.773,2.369,1.534,3.539,2.282
			c1.165,0.792,2.272,1.511,3.323,2.154c1.95,1.248,3.684,2.189,5.203,2.826c1.493,0.656,2.627,0.722,3.405,0.2
			c0.633-0.452,0.978-1.23,1.029-2.334c0.076-1.122-0.171-1.975-0.742-2.558c-0.195-0.203-0.432-0.355-0.707-0.457
			c-0.278-0.101-0.582-0.141-0.917-0.117c-0.216-0.583-0.308-1.16-0.28-1.733c0.048-0.549,0.394-0.917,1.04-1.101
			c0.737,0.138,1.347,0.493,1.829,1.064l0.201,0.26c0.423,0.498,0.728,1.068,0.913,1.714c0.367,1.135,0.414,2.34,0.142,3.614
			c-0.264,1.188-0.837,2.126-1.723,2.812l-0.112,0.085c-1.374,1.024-2.848,1.536-4.424,1.536c-1.557,0.024-3.172-0.281-4.846-0.916
			c-1.78-0.67-3.572-1.586-5.379-2.749c-1.826-1.186-3.619-2.435-5.384-3.748c-1.159-0.833-2.285-1.677-3.375-2.526
			c-1.117-0.83-2.193-1.611-3.233-2.342c-1.556-1.041-3.005-1.869-4.347-2.484c-0.133,0.183-0.279,0.375-0.439,0.577
			c1.769,2.689,3.388,5.138,4.861,7.345c1.577,2.442,2.475,3.933,2.696,4.471c-0.167,0.446-0.449,0.821-0.842,1.126
			c-0.395,0.305-0.889,0.53-1.484,0.676C78.046,102.098,77.019,101.789,76.196,100.929z M70.393,89.469l-1.132-1.843
			c-0.891,0.731-1.112,1.414-0.659,2.049c0.472,0.66,1.17,0.748,2.097,0.266L70.393,89.469z"/>
		<path fill="#F19300" d="M96.048,72.005c0.424,0.598,0.671,1.256,0.739,1.971c0.056,0.687,0.005,1.403-0.151,2.146
			c-0.378,1.653-1.23,3.185-2.558,4.599c-0.433,0.489-0.864,0.911-1.289,1.261c0.184,0.193,0.379,0.414,0.587,0.664
			c0.857,1.056,1.782,1.914,2.775,2.574c0.552,0.34,1.095,0.583,1.631,0.725c0.535,0.145,1.044,0.147,1.526,0.008
			c0.786-0.301,1.419-0.723,1.898-1.266c0.495-0.583,0.885-1.259,1.168-2.023c0.532-1.377,0.761-2.899,0.694-4.564
			c-0.081-1.692-0.226-3.104-0.436-4.233c0.187-0.113,0.426-0.231,0.712-0.355c0.298-0.093,0.582-0.181,0.853-0.262
			c0.235,1.187,0.411,2.787,0.527,4.803c0.075,2.002-0.235,3.894-0.928,5.68c-0.378,0.94-0.917,1.78-1.617,2.519
			c-0.599,0.662-1.356,1.189-2.272,1.58l-0.43,0.185c-2.182,0.76-4.101,0.785-5.76,0.07c-1.688-0.701-3.077-1.733-4.167-3.096
			c-0.571-0.705-1.049-1.466-1.433-2.284l-0.146-0.344c-0.293-0.688-0.496-1.363-0.61-2.025c-0.52-2.487-0.391-4.405,0.388-5.754
			c0.779-1.348,1.484-2.275,2.115-2.782c0.396-0.339,0.84-0.612,1.326-0.821c0.603-0.257,1.266-0.404,1.995-0.444
			C94.427,70.512,95.382,71.003,96.048,72.005z M92.423,80.055c0.64-0.883,1.045-1.953,1.22-3.212
			c0.161-1.288,0.175-2.208,0.041-2.761c-0.211-0.892-0.561-1.589-1.048-2.093c-0.498-0.531-1.059-0.259-1.682,0.82
			c-0.233,0.404-0.395,0.862-0.479,1.374c-0.047,0.527-0.043,1.051,0.009,1.57c0.079,0.982,0.27,1.9,0.568,2.755
			c0.256,0.84,0.446,1.367,0.575,1.584c0.072,0.171,0.167,0.351,0.28,0.54C92.112,80.475,92.283,80.284,92.423,80.055z"/>
		<path fill="#F19300" d="M97.171,63.449l-0.09,0.02c-0.274,0.06-0.47-0.186-0.587-0.733l-0.02-0.091
			c-0.125-0.578-0.078-0.954,0.138-1.128c0.465-0.355,1.504-0.93,3.119-1.724l0.264-0.104c-0.128-0.738-0.259-1.426-0.397-2.066
			c-0.285-1.467-0.691-2.399-1.224-2.795c0.101-0.721,0.623-1.249,1.572-1.58l0.457-0.099c0.791-0.169,1.559-0.08,2.305,0.27
			c0.356,0.177,0.698,0.439,1.028,0.781c0.292,0.32,0.527,0.748,0.707,1.281c0.021,0.538,0.069,1.133,0.145,1.785
			c1.006-0.502,1.885-1.01,2.636-1.523c0.802-0.555,1.292-1.012,1.474-1.369c0.992-0.118,1.57,0.204,1.735,0.965l0.049,0.229
			c0.092,0.873-0.2,1.589-0.875,2.148c-0.465,0.355-1.492,0.846-3.077,1.475c-0.56,0.215-1.101,0.428-1.632,0.637
			c0.03,0.281,0.077,0.573,0.143,0.878c0.283,2.202,0.68,4.489,1.191,6.863c0.231,1.226,0.497,2.459,0.796,3.701
			c0.292,1.212,0.605,2.371,0.939,3.479c0.593,2.006,1.225,3.686,1.899,5.039c0.672,1.352,1.36,2.034,2.063,2.041
			c0.505-0.013,0.955-0.158,1.341-0.432c0.392-0.244,0.752-0.575,1.076-0.997c0.586-0.827,1.012-1.875,1.284-3.145
			c0.273-1.236,0.47-2.394,0.589-3.471c0.033-0.581,0.062-1.113,0.086-1.597c0.028-0.452,0.048-0.806,0.058-1.062
			c0.23-0.114,0.498-0.203,0.802-0.269c0.334-0.072,0.616-0.1,0.842-0.086c0.007,0.477-0.021,1.312-0.083,2.504
			c-0.069,1.161-0.264,2.399-0.587,3.709c-0.161,0.736-0.357,1.447-0.592,2.135c-0.271,0.664-0.583,1.288-0.935,1.874
			c-0.454,0.703-0.995,1.297-1.623,1.785c-0.496,0.36-1.048,0.607-1.658,0.738c-0.213,0.045-0.43,0.076-0.649,0.092
			c-1.562,0.145-2.894-0.126-3.997-0.812c-1.134-0.68-2.091-1.636-2.865-2.872c-0.85-1.283-1.54-2.79-2.073-4.523
			c-0.43-1.405-0.801-2.838-1.118-4.3L101.593,70c-0.224-1.193-0.435-2.391-0.63-3.591c-0.166-1.208-0.333-2.365-0.509-3.475
			c-0.062-0.432-0.119-0.85-0.174-1.253c-0.461,0.228-0.926,0.439-1.394,0.634C98.057,62.75,97.485,63.128,97.171,63.449z"/>
		<path fill="#F19300" d="M124.278,62.578c0.592,0.12,0.905,0.383,0.938,0.787c0.004,0.437-0.134,0.858-0.41,1.265
			c-0.499-0.028-0.951,0.084-1.353,0.337c-0.435,0.252-0.806,0.612-1.113,1.081c-0.586,0.877-0.999,2.017-1.238,3.42
			c-0.239,1.404-0.323,2.822-0.249,4.254c0.106,1.774,0.476,3.36,1.109,4.757c0.633,1.397,1.509,2.076,2.631,2.037
			c0.841-0.037,1.565-0.977,2.174-2.818c0.275-0.874,0.518-1.764,0.729-2.668l-0.33-0.465c-0.976-1.425-1.718-3.007-2.229-4.749
			c-0.48-1.741-0.507-3.22-0.078-4.438c0.182-0.53,0.476-0.968,0.878-1.314c0.369-0.377,0.867-0.63,1.489-0.759
			c1.834-0.48,3.13,0.041,3.89,1.561c0.757,1.49,1.066,3.31,0.927,5.46c-0.057,0.935-0.19,1.87-0.4,2.807
			c-0.213,0.967-0.487,1.888-0.822,2.762c0.375,0.247,0.734,0.384,1.078,0.413c0.497,0.028,0.949-0.068,1.353-0.29
			c0.435-0.221,0.807-0.52,1.114-0.896c0.587-0.658,1.049-1.471,1.386-2.44c0.333-0.967,0.562-1.732,0.685-2.293
			c0.372-0.002,0.949,0.009,1.728,0.034c-0.121,0.625-0.409,1.562-0.867,2.809c-0.458,1.219-1.137,2.284-2.032,3.193
			c-0.495,0.47-1.054,0.848-1.675,1.133c-0.622,0.315-1.321,0.446-2.099,0.389c-0.468-0.028-0.936-0.181-1.407-0.458
			c-0.521,1.001-1.138,1.877-1.849,2.63c-1.05,1.16-2.276,1.76-3.678,1.801l-0.095,0.001c-1.463,0.011-2.728-0.261-3.789-0.814
			c-1.095-0.522-1.988-1.248-2.68-2.176c-0.502-0.651-0.897-1.395-1.184-2.234c-0.285-0.807-0.478-1.648-0.578-2.519
			c-0.066-0.435-0.099-0.872-0.103-1.307c-0.008-1.215,0.169-2.431,0.536-3.649c0.455-1.654,1.191-3.06,2.211-4.22
			c0.68-0.752,1.469-1.351,2.369-1.793c0.838-0.41,1.773-0.62,2.8-0.627L124.278,62.578z M127.958,67.69
			c-0.165-1.182-0.541-1.709-1.132-1.581c-0.405,0.127-0.525,0.627-0.362,1.497c0.128,0.873,0.433,1.867,0.909,2.985
			c0.188,0.434,0.379,0.869,0.569,1.303C128.116,70.307,128.123,68.904,127.958,67.69z"/>
		<path fill="#F19300" d="M149.046,85.042c-0.641-0.26-1.147-0.602-1.521-1.019c-0.367-0.449-0.663-0.927-0.885-1.434
			c-0.401-0.94-0.586-1.904-0.56-2.895c0-0.995,0.013-1.733,0.038-2.208c-0.229,0.263-0.677,0.822-1.348,1.679
			c-0.68,0.888-1.529,1.633-2.553,2.238c-0.532,0.312-1.094,0.554-1.684,0.724c-0.621,0.161-1.248,0.161-1.881-0.002
			c-0.882-0.195-1.572-0.582-2.065-1.159c-0.472-0.54-0.8-1.203-0.983-1.99c-0.205-0.825-0.274-1.743-0.206-2.754
			c0.065-1.012,0.184-2.028,0.352-3.046c0.367-1.932,0.804-3.75,1.307-5.454c0.494-1.672,0.65-2.775,0.465-3.304
			c0.22-0.361,0.479-0.617,0.775-0.765c0.267-0.158,0.566-0.257,0.897-0.3c0.264-0.028,0.548-0.003,0.85,0.075
			c0.422,0.107,0.847,0.33,1.276,0.666c0.697,0.534,1.121,1.141,1.266,1.822c-0.27,0.928-0.606,1.918-1.006,2.973
			c-0.407,1.085-0.793,2.144-1.156,3.175c-0.731,1.967-1.25,3.731-1.556,5.293c-0.335,1.554-0.084,2.455,0.751,2.702
			c1.492,0.449,2.986-0.42,4.485-2.608c1.488-2.158,2.854-5.037,4.104-8.64c0.206-0.301,0.441-0.528,0.708-0.686
			c0.273-0.187,0.559-0.291,0.85-0.312c0.835-0.106,1.641,0.197,2.421,0.914c0.787,0.685,1.118,1.333,0.995,1.943
			c-0.374,0.323-0.813,1.03-1.32,2.122c-0.504,1.092-0.962,2.308-1.373,3.65c-0.54,1.598-0.901,3.129-1.086,4.593
			c-0.216,1.458-0.068,2.33,0.434,2.621c0.597,0.315,1.353,0.059,2.273-0.766c0.92-0.825,1.815-1.8,2.684-2.927
			c0.688-0.916,1.299-1.804,1.844-2.661c0.549-0.888,0.901-1.505,1.056-1.852c0.234,0.092,0.485,0.174,0.757,0.244l0.769,0.197
			c-0.161,0.376-0.549,1.129-1.161,2.258c-0.643,1.121-1.42,2.271-2.336,3.451c-0.48,0.616-0.998,1.19-1.553,1.723
			c-0.557,0.533-1.117,0.966-1.688,1.304c-0.567,0.334-1.138,0.542-1.702,0.621c-0.44,0.08-0.869,0.066-1.292-0.043
			C149.335,85.166,149.19,85.111,149.046,85.042z"/>
		<path fill="#F19300" d="M163.354,71.47c0.963,0.51,2.079,0.961,3.353,1.353c1.301,0.406,2.224,0.895,2.768,1.466
			c0.216,0.254,0.335,0.529,0.355,0.823c0.021,0.293-0.104,0.631-0.379,1.014c-0.689,0.904-1.338,1.864-1.945,2.881
			c-0.612,1.018-1.156,2.049-1.643,3.097c-0.92,1.874-1.579,3.551-1.976,5.033c-0.398,1.481-0.405,2.359-0.02,2.631
			c0.521,0.347,1.292,0.157,2.311-0.572c1.063-0.742,2.094-1.588,3.091-2.54c0.668-0.668,1.261-1.287,1.777-1.86
			c0.556-0.586,0.965-1.023,1.222-1.309c0.25,0.061,0.512,0.164,0.787,0.311c0.317,0.133,0.549,0.291,0.701,0.476
			c-0.318,0.396-0.911,1.086-1.785,2.069c-0.885,0.94-1.883,1.893-2.992,2.856c-0.609,0.488-1.22,0.94-1.828,1.358
			c-0.637,0.403-1.265,0.722-1.883,0.959c-0.577,0.223-1.129,0.335-1.66,0.338c-0.474,0.03-0.918-0.063-1.328-0.282
			c-0.057-0.03-0.105-0.072-0.146-0.13c-1.193-0.738-2.121-1.721-2.772-2.948c-0.683-1.243-0.846-2.368-0.486-3.377
			c0.283-0.801,0.639-1.601,1.059-2.398c0.423-0.799,0.873-1.583,1.351-2.353c0.869-1.371,1.691-2.558,2.467-3.558
			c0.762-1.04,1.09-1.696,0.985-1.961l-1.355-1.036c-0.56-0.472-0.95-0.768-1.17-0.884c-0.229,0.232-0.693,0.779-1.396,1.64
			c-0.718,0.89-1.334,1.621-1.848,2.193c-0.208-0.073-0.444-0.198-0.704-0.372c-0.247-0.131-0.502-0.283-0.761-0.457
			c0.485-0.587,1.131-1.338,1.932-2.253c0.762-0.901,1.233-1.497,1.423-1.786c-0.446-0.623-0.711-1.291-0.79-2.003
			s0.002-1.303,0.251-1.771l0.044-0.083c0.437-0.826,0.937-1.407,1.502-1.742c0.623-0.376,1.114-0.503,1.474-0.383
			c0.124,0.031,0.241,0.075,0.351,0.133c0.193,0.102,0.357,0.226,0.493,0.367c0.16,0.227,0.28,0.501,0.357,0.823
			c0.166,0.687,0.069,1.465-0.285,2.333C163.884,70.465,163.585,71.099,163.354,71.47z"/>
		<path fill="#F19300" d="M178.881,79.23c-0.091,0.25-0.233,0.56-0.427,0.926c-0.194,0.368-0.409,0.76-0.643,1.174
			c-0.478,0.742-0.965,1.451-1.467,2.128c-0.503,0.677-0.846,1.122-1.028,1.334c0.423-0.253,1.255-0.646,2.497-1.178
			c1.262-0.556,2.553-0.861,3.876-0.913c0.574,0.001,1.118,0.061,1.635,0.177c0.495,0.14,0.933,0.373,1.31,0.698l0.07,0.061
			c0.545,0.469,0.828,1.044,0.855,1.726c0.008,0.663-0.129,1.391-0.401,2.184c-0.313,0.84-0.76,1.711-1.332,2.615
			c-0.593,0.928-1.222,1.846-1.883,2.755c-1.227,1.657-2.353,3.176-3.375,4.554c-1.025,1.378-1.343,2.318-0.953,2.82
			c0.485,0.583,1.361,0.662,2.635,0.237c1.292-0.448,2.554-1.026,3.78-1.736c0.848-0.504,1.616-0.99,2.312-1.462
			c0.672-0.446,1.167-0.782,1.482-1.003c0.246,0.049,0.498,0.184,0.757,0.409c0.24,0.248,0.381,0.49,0.419,0.731
			c-0.271,0.218-0.626,0.487-1.065,0.807c-0.465,0.299-0.97,0.624-1.519,0.973c-1.015,0.648-2.149,1.273-3.406,1.874
			c-1.262,0.6-2.48,0.967-3.662,1.098c-0.793,0.059-1.537-0.009-2.235-0.201c-0.698-0.191-1.313-0.599-1.846-1.222
			c-0.604-0.685-0.933-1.423-0.991-2.212c-0.077-0.769,0.017-1.57,0.287-2.407c0.314-0.84,0.76-1.69,1.337-2.549
			c0.596-0.884,1.229-1.736,1.899-2.558c1.256-1.507,2.383-2.859,3.377-4.059c1.037-1.202,1.281-2.082,0.733-2.638
			c-0.357-0.349-1.066-0.406-2.132-0.175c-1.063,0.278-2.126,0.676-3.191,1.196c-0.725,0.362-1.392,0.754-2.002,1.174
			c-0.634,0.401-1.101,0.799-1.404,1.197c-0.686,0.845-1.511,1.778-2.474,2.798c-0.943,0.998-1.836,1.934-2.677,2.813
			c-0.701,0.383-1.437,0.261-2.215-0.368l-0.105-0.091c-0.705-0.609-0.983-1.219-0.829-1.827c0.918-0.731,2.082-1.885,3.488-3.47
			c1.385-1.558,2.662-3.133,3.826-4.72c0.785-1.051,1.453-2.016,2.007-2.897c0.53-0.9,0.854-1.585,0.974-2.059
			c0.579-0.529,1.325-0.606,2.235-0.23C178.32,78.046,178.811,78.551,178.881,79.23z"/>
	</g>
	<path fill="#F19300" d="M213.388,84.189c-9.623-2.772-9.119,4.312-15.771,6.13C197.616,90.319,208.655,96.115,213.388,84.189z"/>
</g>
<path fill="#673A15" d="M144.754,203.868c0,1.294-1.048,2.341-2.339,2.341c-1.292,0-2.34-1.047-2.34-2.341l-3.588-64.365
	c0-7.935,6.457-14.39,14.39-14.39h3.014c7.933,0,14.39,6.456,14.39,14.39l-3.588,64.365c0,1.294-1.047,2.341-2.339,2.341
	s-2.341-1.047-2.341-2.341l3.588-64.365c0-5.355-4.356-9.712-9.71-9.712h-3.014c-5.354,0-9.711,4.356-9.711,9.712L144.754,203.868z"
	/>
<path fill="#F19300" d="M162.87,139.562c0-4.976-4.046-9.024-9.022-9.024h-2.798c-4.976,0-9.024,4.048-9.024,9.024l3.44,61.166
	c0,3.333,2.711,6.046,6.044,6.046h1.873c3.336,0,6.047-2.713,6.047-6.046L162.87,139.562z"/>
<g>
	<path fill="#673A15" d="M222.779,171.087c-0.173,0.171,0.122,0.672,0.075,0.55C222.991,171.64,222.789,171.178,222.779,171.087z"/>
	<polygon fill="#673A15" points="220.967,173.736 221.146,173.368 221.121,173.162 	"/>
	<path fill="#673A15" d="M219.21,173.97c0.43,0.759,0.661-0.354,1.096-0.172l0.114,0.169l-0.049-0.706
		C219.985,173.495,219.574,174.104,219.21,173.97z"/>
	<path fill="#673A15" d="M217.927,172.547c-0.031-0.028-0.046-0.046-0.066-0.066c-0.04,0.016-0.097,0.037-0.199,0.038
		C217.815,172.818,217.521,172.861,217.927,172.547z"/>
	<path fill="#673A15" d="M217.86,172.48C218.054,172.395,217.649,172.254,217.86,172.48L217.86,172.48z"/>
	<path fill="#673A15" d="M217.166,172.562c-0.109-0.175-0.355-0.154-0.309-0.314c-0.227,0.229-0.116,0.401,0.126,0.67
		L217.166,172.562z"/>
	<path fill="#673A15" d="M216.899,173.587l0.104-0.159C216.958,173.355,216.913,173.338,216.899,173.587z"/>
	<path fill="#673A15" d="M217.112,173.299c0.044,0.251,0.037,0.001,0.111-0.205l-0.22,0.334
		C217.079,173.551,217.158,173.815,217.112,173.299z"/>
	<path fill="#673A15" d="M217.425,173.176c0.202,0.138,0.431,0.197,0.243,0.553C218.146,173.479,217.902,172.923,217.425,173.176z"
		/>
	<path fill="#673A15" d="M219.364,174.845l0.275,0.177l0.093-0.329C219.687,174.856,219.275,174.594,219.364,174.845z"/>
	<path fill="#673A15" d="M215.649,173.345c-0.133-0.094-0.353-0.152-0.434-0.408c0.028,0.179,0.212,0.443,0.292,0.663
		L215.649,173.345z"/>
	<path fill="#673A15" d="M215.508,173.6l-0.216,0.381C215.565,173.944,215.575,173.789,215.508,173.6z"/>
	<polygon fill="#673A15" points="217.107,174.512 217.418,173.75 217.015,174.546 	"/>
	<polygon fill="#673A15" points="214.154,172.762 214.015,173.458 214.092,173.214 	"/>
	<path fill="#673A15" d="M213.37,173.484c0.04-0.369-0.307-0.53-0.227-0.77c-0.185,0.104-0.285,0.43-0.379,0.725
		C212.896,173.257,213.075,173.262,213.37,173.484z"/>
	<path fill="#673A15" d="M212.595,173.876c0.062-0.099,0.114-0.263,0.17-0.437C212.696,173.536,212.637,173.667,212.595,173.876z"/>
	<path fill="#673A15" d="M214.407,173.588l0.24,0.465c0.037-0.008,0.077-0.017,0.119-0.025
		C214.716,173.928,214.601,173.661,214.407,173.588z"/>
	<path fill="#673A15" d="M214.656,174.066l-0.009-0.014c-0.128,0.02-0.22,0.034-0.257,0.04
		C214.423,174.089,214.503,174.082,214.656,174.066z"/>
	<path fill="#673A15" d="M214.795,174.022l-0.028,0.005C214.79,174.073,214.8,174.089,214.795,174.022z"/>
	<path fill="#673A15" d="M216.204,174.276c-0.099,0.321-0.388,0.716,0.081,1.041C216.32,174.946,216.052,174.762,216.204,174.276z"
		/>
	<path fill="#673A15" d="M215.348,174.166l-0.247,0.437l0.344,0.028C215.404,174.503,215.297,174.327,215.348,174.166z"/>
	<polygon fill="#673A15" points="214.986,174.801 215.101,174.603 214.973,174.593 	"/>
	<path fill="#673A15" d="M213.238,174.228c-0.084,0.246-0.228,0.296-0.388,0.366c0.202,0.059,0.4,0.072,0.577,0.033
		C213.416,174.467,213.426,174.17,213.238,174.228z"/>
	<path fill="#673A15" d="M213.938,174.201l-0.023,0.036C213.942,174.274,213.961,174.284,213.938,174.201z"/>
	<path fill="#673A15" d="M211.244,175.027l-0.012-0.087l-0.035,0.002C211.212,174.97,211.229,175.001,211.244,175.027z"/>
	<path fill="#673A15" d="M213.479,174.714c0.159,0.069,0.213-0.077,0.25-0.251c-0.089,0.079-0.188,0.138-0.302,0.164
		C213.434,174.7,213.442,174.748,213.479,174.714z"/>
	<path fill="#673A15" d="M212.19,174.207c0.094,0.088,0.193,0.16,0.294,0.225C212.382,174.287,212.188,174.071,212.19,174.207z"/>
	<path fill="#673A15" d="M213.835,174.111c0.004-0.009,0.009-0.019,0.014-0.027C213.779,173.989,213.797,174.04,213.835,174.111z"/>
	<path fill="#673A15" d="M213.835,174.111c-0.052,0.091-0.077,0.229-0.105,0.352c0.072-0.061,0.136-0.135,0.185-0.226
		C213.888,174.207,213.858,174.158,213.835,174.111z"/>
	<path fill="#673A15" d="M211.058,175.761c0.158,0.23,0.821,0.443,0.642,0.92c-0.373,0.329-0.38-0.09-0.633-0.292
		c0.289,0.541-0.372,0.957-0.116,1.79l0.317-0.381c0.032,0.132-0.061,0.372,0.067,0.471c-0.065-0.471,0.216-0.979,0.636-0.549
		c0.243-0.415-0.29-1.895-0.727-2.692C211.276,175.231,211.316,175.419,211.058,175.761z"/>
	<path fill="#673A15" d="M211.387,174.329c-0.164,0.272-0.173,0.454-0.154,0.611l0.643-0.07l-0.028,0.078l0.114-0.084
		C211.798,174.814,211.655,174.651,211.387,174.329z"/>
	<path fill="#673A15" d="M212.505,174.459l0.003-0.003l0.003,0.008c0.04,0.059,0.056,0.095,0.019,0.063
		c0,0.007-0.007,0.011-0.01,0.013c0.012,0.071,0.014,0.135,0.017,0.197c-0.199-0.066-0.059-0.126-0.017-0.197l-0.009-0.076
		L212.505,174.459l-0.544,0.405c0.146,0.042,0.302-0.007,0.575-0.125c0.015,0.524-0.25,0.806,0.061,1.309
		c0.377-0.117,0.175-0.478,0.351-0.743c-0.582,0.255,0.112-0.317-0.395-0.51c0.1-0.11,0.2-0.159,0.298-0.201
		c-0.123-0.038-0.244-0.091-0.366-0.162L212.505,174.459z"/>
	<path fill="#673A15" d="M216.241,176.478c-0.033-0.039-0.04-0.075-0.052-0.11C216.166,176.438,216.162,176.484,216.241,176.478z"/>
	<path fill="#673A15" d="M216.063,175.759l-0.026,0.079c-0.294-0.103-0.775-0.641-0.747-0.72c0.188,0.43,0.335,0.732,0.614,1.127
		c0.028-0.082,0.012-0.291,0.173-0.277c0.166,0.114,0.063,0.237,0.112,0.399C216.243,176.211,216.404,175.928,216.063,175.759z"/>
	<path fill="#673A15" d="M213.765,176.032l0.369,0.373l-0.077-0.258c0.317,0.023,0.175-0.28,0.161-0.489L213.765,176.032z"/>
	<polygon fill="#673A15" points="211.045,174.157 210.91,174.972 211.09,174.704 	"/>
	<polygon fill="#673A15" points="210.382,174.438 210.266,174.756 210.447,174.908 	"/>
	<path fill="#673A15" d="M173.218,176.508l0.042-0.231C173.2,176.402,173.174,176.496,173.218,176.508z"/>
	<path fill="#673A15" d="M194.709,174.939c-0.108-0.479-0.172-1.194-0.275-0.673l-0.06,0.519
		C194.542,174.728,194.64,174.808,194.709,174.939z"/>
	<path fill="#673A15" d="M182.641,174.985c0.009,0.054,0.02,0.112,0.031,0.168c0.092-0.162,0.176-0.312,0.255-0.453
		C182.839,174.788,182.74,174.885,182.641,174.985z"/>
	<path fill="#673A15" d="M166.028,176.87l-0.175,0.53C166.133,177.396,166.008,177.129,166.028,176.87z"/>
	<path fill="#673A15" d="M203.807,175.959c-0.194-0.19-0.344-0.254-0.47-0.285C203.565,175.973,203.769,176.393,203.807,175.959z"/>
	<path fill="#673A15" d="M172.679,171.261c0.107-0.085,0.171-0.183,0.154-0.31C172.73,171.041,172.683,171.146,172.679,171.261z"/>
	<path fill="#673A15" d="M202.815,175.674c0.033,0.052,0.065,0.078,0.099,0.122c0.131-0.086,0.262-0.156,0.423-0.122
		C203.169,175.451,202.986,175.314,202.815,175.674z"/>
	<path fill="#673A15" d="M143.453,177.459c-0.016-0.022-0.038-0.033-0.054-0.06C143.397,177.47,143.42,177.473,143.453,177.459z"/>
	<path fill="#673A15" d="M136.854,172.208c0.066-0.03,0.17-0.028,0.268-0.033C137.075,172.138,136.994,172.14,136.854,172.208z"/>
	<path fill="#673A15" d="M207.792,175.126C207.925,175.07,207.806,175.065,207.792,175.126L207.792,175.126z"/>
	<path fill="#673A15" d="M201.396,178.901l-0.012-0.003C201.426,179.001,201.419,178.981,201.396,178.901z"/>
	<path fill="#673A15" d="M207.969,175.09c0.055,0.013,0.092,0.021,0.129,0.032C208.103,175.032,208.078,174.981,207.969,175.09z"/>
	<path fill="#673A15" d="M207.792,175.126c-0.038,0.014-0.095,0.033-0.188,0.056c0.077-0.02,0.154-0.007,0.231,0.021
		C207.803,175.172,207.787,175.144,207.792,175.126z"/>
	<path fill="#673A15" d="M155.601,175.462c-0.01-0.015-0.024-0.025-0.035-0.047C155.43,175.64,155.492,175.602,155.601,175.462z"/>
	<path fill="#673A15" d="M189.644,179.169c0.009-0.004,0.016-0.017,0.022-0.021l-0.016-0.023L189.644,179.169z"/>
	<path fill="#673A15" d="M189.024,179.393c0.395-0.559,0.497-0.446,0.626-0.268l0.238-1.488L189.024,179.393z"/>
	<path fill="#673A15" d="M207.995,178.258c-0.293-0.479,0.353-0.777,0.014-0.971c0.271-0.409,0.534-1.028,1.027-0.805l0.203,0.709
		c-0.044-0.208-0.364-0.387-0.454-0.146c0.13-0.348,0.856,0.874,0.9-0.102l-0.401-0.454c0.259-0.41,0.505-1.229,0.937-1.095
		c-0.311-0.674-0.077,0.101-0.504-0.673c0.425,1.007-0.993,0.108-0.421,1.143c-0.449-0.928-0.563-0.338-1.059-1.112
		c0.05,0.238,0.201,0.438-0.14,0.37c-0.005,0.07-0.026,0.165-0.04,0.22c-0.01-0.006-0.015-0.008-0.023-0.014l0.021,0.026
		c-0.01,0.037-0.01,0.045,0.009,0.008c0.091,0.093,0.173,0.21,0.221,0.339c-0.077,0.573-0.605,0.635-0.746,0.946
		c-0.21-0.085,0.044-0.287-0.096-0.526l-0.208,0.465c-0.098-0.528-0.626-0.807-0.212-1.188l-0.409,0.037
		c-0.278-0.253-0.61-0.358-0.787-0.115c-0.198-0.103-0.423,0.628-0.295,0.196l-0.605,0.381l-0.016-0.134
		c-0.616-0.039-1.262,1.032-1.997,0.032c-0.203,0.135-0.421,0.301-0.769,0.147l-0.068-0.465c-0.269,0.161-0.777-0.465-0.903,0.02
		c-0.239-1.225-1.236-0.367-1.685-0.614l-0.072,0.603c-0.312-0.065-0.636,0.103-1.063,0.284l-0.044,0.536
		c-0.409,0.38-0.844-0.521-1.393-0.553c0.073-0.195,0.201-0.121,0.278,0.017c-0.425-1.276-1.544,0.628-1.972-0.383
		c-0.191,0.158-0.285,0.067-0.356-0.087c0.014,0.002,0.027-0.005,0.042-0.019c-0.015-0.01-0.035-0.017-0.06-0.02
		c-0.044-0.104-0.088-0.225-0.141-0.323c0.031,0.14,0.066,0.258,0.108,0.317c-0.117-0.015-0.307,0.011-0.51,0.104l0.066-0.576
		c-0.018,0.004-0.026,0.001-0.042,0.008c-0.115-0.242-0.202,0.234-0.216,0.676c-0.109,0.074-0.218,0.161-0.312,0.278
		c0.088-0.938-0.535,0.182-0.478-0.829c-0.238,0.438-0.962,0.119-1.326,1.074c0.03-0.128-0.005-0.203,0.091-0.186
		c-0.166-0.166-0.326-0.327-0.581-0.1l0.114-0.729l-0.698,0.824c-0.144-0.504-0.181-0.784,0.233-1.253
		c-0.864,0.654-0.598,0.168-1.366,0.843l0.154-0.449c-0.195-0.037-0.676,0.485-0.683,0.076c-0.198-0.979-2.098-0.737-3.039-1.819
		c-0.121,1.405-0.379-0.74-0.687,0.296c0.014-0.335-0.104-0.557,0.151-0.788c-0.661,0.169-0.764-0.732-1.376,0.058
		c0.005-0.336,0.235-0.442,0.22-0.646c-0.065,0.059-0.255,0.24-0.273,0.033c-0.019-0.202,0.15-0.25,0.275-0.37
		c-0.631-0.075-0.908,0.905-1.153,1.828c-0.209-0.503-0.376-0.474-0.723,0.094c-0.039-0.327-0.153-0.683,0.243-0.716
		c-0.198-0.088-1.203-0.715-1.364,0.033c-0.03-0.203-0.283-0.119-0.354-0.039c-0.465-0.118-0.495-0.192-0.975-0.193l0.107,0.144
		c-0.334,0.882-0.418,0.143-0.811,0.195l0.026-0.092c-0.762-0.79-0.414,0.258-1.156-0.624l-0.03,0.575
		c-0.238,1.202-0.657-0.831-1.216-0.401l0.141,0.342c-0.312,0.395-0.57-1.742-0.841-1.922c-0.049-0.113,0.112-0.163,0.205-0.233
		c-0.658-0.796-0.17,0.738-0.725,0.86c-0.062-0.414,0.225-1.015-0.135-1.125c-0.163-0.342-1.168,1.198-1.603,0.394
		c0.089,0.315,0.173,0.63-0.089,0.855c-0.381,0.098-0.955-1.218-1.35-0.248c-0.045-0.087-0.06-0.17-0.057-0.247
		c-0.302,0.244-0.96,0.387-1.154,0.914c-0.196-1.992-1.814,0.896-1.756-0.931l-0.894,0.063l0.028-0.186
		c-0.567-0.129-0.772,0.317-0.976,0.756c-0.129-0.124-0.033-0.295-0.021-0.392c-0.824-0.362-0.914-0.284-1.6,0.628l-0.075-0.592
		c-0.182,0.346-1.208-0.923-2.012-0.227c0.007-0.066,0.021-0.183,0.085-0.267c-0.896,0.69-2.238-1.567-2.5,0.596l-0.58,0.554
		c0.781,0.138-0.077,0.942,0.255,1.287c-0.297,0.138-0.808-0.62-0.44-0.746l0.062,0.106c0.092-1.13-0.977-0.359-0.991-1.127
		c-1.526,0.103-3.024-0.399-4.453-0.371l0.216,0.862l-0.497-0.02c-0.142-0.196-0.217-0.673,0.138-0.658
		c-0.217-0.484-0.565,0.45-0.563,0.641c-0.714-0.312,0.207-1.035-0.009-1.043l-0.282,0.082l0.069,0.099
		c-0.21,0.371-0.207,0.75-0.63,0.733c-0.278-0.158-0.173-0.53-0.278-0.557c-0.004-0.062-0.042-0.089-0.164-0.016l-0.621-0.036
		l0.29,0.675c-0.253,0.356-0.584,0.001-0.251,0.764c-0.495-1.178-2.332-0.288-2.613-0.645c-0.355,0.527-0.736,0.541-1.205,0.501
		c0.123,0.137,0.238,0.91-0.174,0.835c0.062-1.607-0.777-0.661-1.158-1.796c0.327,0.75-1.135,0.243-0.628,1.307
		c-0.344-0.113-0.049-0.599-0.32-0.963c-0.772,0.655-1.778-0.305-2.747-0.091c-0.01,0.211,0.166,0.529-0.038,0.846l-0.546-1.041
		c-0.191,0.106-0.152,1.217-0.521,0.494c0.055,0.176,0.134,0.441,0.006,0.511c-0.977-0.496-1.955-0.262-2.945-0.155
		c-0.987,0.076-1.987,0.041-2.937-0.943c0.253,0.414,0.077,0.45-0.126,0.461c0.13,0.101-0.016,0.519,0.003,0.805l-0.796-0.809
		c-0.176,0.787-0.879,0.035-0.993,0.789l-0.761,0.211c-0.874,2.025,0.27,2.425,0.199,3.338c0.426-1.005,2.162,0.983,2.851-0.455
		c0.139,0.236-0.131,0.366-0.06,0.634c0.176-0.488,0.378-0.586,0.744-0.358l-0.045,0.121c1.042-0.11,1.485,0.421,2.66,0.718
		l-0.089-0.565c0.251,0.071,0.305,0.249,0.424,0.388c0.282-0.864-0.706-0.035-0.447-0.986c0.34,1.146,1.766-0.017,2.011,1.29
		c0.391,0-0.124-0.654,0.261-0.654l0.11,0.353l0.09-0.458c0.254,0.07,0.392,0.513,0.41,0.811c-0.062-0.033-0.175,0.088-0.24,0.114
		c0.341,0.412,0.93-0.159,1.046-0.024l-0.381-0.212c1.052-0.337,2.354,0.058,3.336-0.711l-0.088-0.265
		c0.749-0.53,0.633,0.265,1.472-0.006l-0.028,0.065c0.156-0.274,0.376-0.419,0.609-0.399c-0.198,0.322,0.438,0.587,0.176,0.947
		c0.811-0.571,0.39-0.438,0.883-1.461l0.154,0.435c0.163-0.413,0.165-0.625,0.579-0.767c-0.323,0.402,0.309,0.657-0.047,1.185
		c0.941,0.914,1.25-1.06,1.743,0.33c0.329-1.249-0.807-0.632-0.597-0.908c-0.214-0.388,0.279-0.938,0.563-0.831
		c0.282,0.01,0.577,1.537,1.285,1.47c-0.07-0.003-0.067,0.092-0.141,0.09c0.285,0.298,0.496-0.456,0.851,0.033
		c0.133-0.753,0.423,0.016,0.416-0.932l-0.634,0.257c0.351-0.269,0.627-1.395,1.264-0.896c-0.035,0.194-0.2,0.456-0.314,0.603
		c0.193,0.269,0.329-0.205,0.53,0.07c0.004,0.95-0.773,0.254-1.119,0.997c0.212,0.388,0.696-0.729,0.564,0.307
		c0.202-1.318,0.702,0.123,1.117-0.899l0.003,0.568c0.069-0.095,0.212-0.371,0.351-0.365l-0.209,0.75
		c0.351-0.649,0.775,0.504,1.125,0.14c-0.772,0.064-0.214-0.671-0.563-1.064c0.913-0.817,0.633,1.448,1.685,1.112
		c-0.141,0.088-0.562-0.309-0.349-0.584c0.208,0.105,0.49,0.304,0.628,0.599c0.694-0.146-0.138-0.579,0.144-0.939
		c0.272,0.681,0.331-0.294,0.63-0.527l0.028,0.576c0.817,0.339,0.158-1.211,0.903-0.793l-0.273,0.812l0.37-0.222l-0.053,0.661
		c0.39-0.505,0.521-0.383,0.929-0.216c-0.107-0.401,0.016-1.047,0.371-1.08c0.255,0.333-0.117,0.553,0.383,0.451
		c-0.103,0.365-0.21,0.823-0.445,0.301c-0.018,0.188-0.101,0.365-0.117,0.553c0.273,0.383,0.654,0.062,0.836,0.051
		c-0.069-0.018-0.154-0.046-0.201-0.127l0.709-0.828c0.119,0.212,0.031,0.389-0.055,0.563c0.147-0.067,0.242-0.342,0.458-0.391
		c-0.044,0.472-0.019,0.947-0.319,1.183l0.677-0.53c0.05,0.202,0.362,0.558,0.278,0.73c0.38,0.274,0.917-0.914,1.43-0.554
		c0.025-0.091,0.077-0.179,0.185-0.246c0.479,0.104,0.895,0.677,1.46,0.03l0.313,0.839c0.442-0.192-0.423-1.057,0.314-1.378
		c0.528-0.271,0.188,0.715,0.366,0.948c0.26-0.414,0.729-1.258,1.191-0.557c-0.163,0.153-0.282,0.024-0.432,0.081l0.351,0.479
		c-0.454,0.751-0.757,0.475-0.437,1.144c0.088-1.622,1.396-0.113,1.502-1.733l0.227,0.351c-0.068-0.019-0.082,0.077-0.149,0.058
		c0.432,0.795,0.39-1.16,0.985-0.907c0.206,0.133,0.34,0.374,0.188,0.562l0.487-0.385c0.134,0.038,0.084,0.317-0.049,0.281
		l0.72-0.103l-0.008,0.048c0.118-0.251,0.372-0.636,0.496-0.799c0.168,0.239-0.103,0.168-0.067,0.373l0.421-0.373
		c0.13,0.434-0.221,0.81-0.489,0.745c0.262,1.631,0.357-0.398,1.061,0.624l-0.373,0.172c0.161,0.94,0.465,0.637,0.814,1.248
		c-0.063-0.309-0.688-1.522-0.24-1.886c0.106,0.134,0.254,0.208,0.512-0.095c-0.052,0.574,0.18,0.455,0.458,0.449l-0.095,0.759
		c0.316-0.19,0.332-0.58,0.543-0.904c0.324,0.107,0.327,0.701,0.346,1.206c0.51,0.171-0.255-0.979,0.388-1.062
		c0.406,0.323,0.745,0.078,1.338-0.298c0.271,0.309-0.119,0.455-0.039,0.689l0.36-0.562c0.064,0.025,0.016,0.206-0.01,0.298
		c0.266-0.197,0.133-0.752,0.53-0.902c0.235-0.815,0.552,1.331,1.158,0.456c0.074,0.231-0.135,0.455-0.152,0.752
		c0.725-0.52,0.604-0.35,1.271-1.079l0.334,0.581c-0.205-0.629,0.334-1.213,0.816-1.684c-0.06-0.294-0.11-0.553-0.155-0.681
		l0.675-0.279c0.045,0.139-0.07,0.382-0.233,0.675c0.052-0.056,0.104-0.109,0.147-0.156c0.149,0.318-0.057,0.727-0.292,1.115
		c-0.035-0.163-0.073-0.335-0.11-0.506c-0.24,0.426-0.476,0.902-0.537,1.347c0.055-0.079,0.141-0.138,0.229-0.164
		c-0.062,0.116-0.109,0.222-0.109,0.3c0.002,0.083,0.099-0.071,0.231-0.241l-0.052,0.859l0.104-0.324l0.619,0.672
		c0.712-0.716,1.471-1.82,2.418-1.949c-0.365,0.553-0.297,0.979-0.491,1.693c-0.037-0.818-0.731,0.161-1.123-0.101
		c0.205,0.136,0.072,0.467-0.013,0.572l0.939-0.5c-0.163,0.584,0.054,0.48,0.191,0.774c0.146-1.196,0.775-0.634,1.188-0.899
		c-0.084,0.397-0.269,0.764-0.624,0.576c0.187,0.974,0.913-1.21,1.133-0.355c-0.099-0.017-0.133-0.091-0.225,0.096
		c0.315-0.283,0.78,0.14,0.562,0.442l-0.099-0.019c0.584,0.309,1.906,0.542,2.285-0.405c-0.031,0.129-0.421,1.156-0.515,1.342
		l2.065-2.969c-0.339,0.812-0.521,2.925-1.183,3.248c0.117,0.164,0.267,0.356,0.669,0.15c-0.07-0.148,0.086-1.289,0.247-1.325
		c0.124,1.048,0.124,0.578,0.393,1.508c-0.11-0.224,0.433-1.496,0.666-1.389c-0.092,0.188-0.334,1.312-0.463,1.424l0.97-1.134
		c-0.216,0.194-0.319,1.095-0.275,1.5c0.002-0.272,0.537,0.17,0.738,0.086l-0.189-0.374c0.656,0.39,1.16-1.657,1.829-1.433
		c-0.145,0.253-0.601,1.618-0.27,1.865c0.327-0.632,1.441-3.074,2.117-3.465l0.037,0.404l0.532-0.37
		c-0.445,0.995-1.696,2.962-2.354,3.677c0.205,0.365-0.022,0.471,0.396,0.527c0.073,0.395-0.338,0.498-0.467,0.492
		c0,0,0.93,0.446,0.93,0.445c0.11-0.797,0.911-0.67,0.983-1.337c0,0-0.301,0.163-0.603,0.325c-0.309,0.168-0.609,0.308-0.609,0.308
		c0.122-0.784,1.04-2.119,1.67-1.884c0.119,0.344-0.361,1.394-0.396,1.659c0.14-0.258,0.74-0.418,0.773-0.214l-0.357,0.379
		c0.348,0.361,0.777-0.956,1.137-0.123c0.147,0.083,0.365,1.075,0.447,0.608c-0.169-0.935,0.135-3.755,0.368-4.428
		c0.037,0.065,0.666,0.935,0.806,1.401c0.196,0.737-0.53,1.676-0.368,2.31c0.027-0.218,0.198-0.477,0.263-0.558
		c0.152,0.2-0.126,0.672,0.251,0.603c0.121-0.807,0.733,0.13,0.222-0.672c0.364-0.204,0.362,0.197,0.78,0.196
		c-0.104-0.528,0.446-1.77,0.78-2.013c-0.025,0.208,0.045,0.478,0.077,0.602c0.693,0.074,1.072,0.445,1.73,0.453
		c0.065,0.197,0.396,0.436,0.269,0.787c0.092-0.147,0.171-0.414,0.372-0.454c0.427,0.678-0.453,0.14-0.117,0.968
		c0.01-0.475,0.51-0.693,0.78-1.012c-0.131-0.728-0.668-0.078-0.956,0.22c-0.029-0.996,0.423-2.095,1.041-2.61
		c0.5-0.289,0.269,0.635,0.351,0.483c1.004,0.1,0.672-1.82,1.539-1.154c0.39,0.601,0.158,1.271,0.282,1.723
		c-0.411,0.279-0.71-0.354-0.995-0.306l0.388,0.276c-0.117,0.222-0.393,0.407-0.568,0.233c0.164,0.277,0.595,0.272,1.087,0.255
		c0.49-0.031,1.037-0.111,1.463,0.1c0.109-0.234,0.312-0.49,0.165-0.729L207.995,178.258z M153.778,171.683l0.104,0.145
		C153.676,172.008,153.727,171.854,153.778,171.683z M174.476,176.485c0.167-0.648,0.235-0.322,0.396-0.115
		C174.758,176.479,174.526,176.832,174.476,176.485z M182.895,176.047c0.107-0.026,0.215,0.018,0.306,0.188
		C183.081,176.405,182.982,176.288,182.895,176.047z M206.332,175.844c-0.251-0.206-0.161-0.123,0.007-0.027
		C206.336,175.825,206.334,175.832,206.332,175.844z"/>
	<path fill="#673A15" d="M182.114,176.817c-0.009-0.102,0.005-0.21,0.021-0.317C182.074,176.587,182.051,176.697,182.114,176.817z"
		/>
	<path fill="#673A15" d="M166.061,176.773c-0.007-0.006-0.011-0.005-0.016-0.008c-0.009,0.035-0.015,0.07-0.017,0.104
		L166.061,176.773z"/>
	<path fill="#673A15" d="M199.206,181.057c-0.102-0.091-0.154-0.201-0.184-0.313C199.001,180.884,199.041,181.006,199.206,181.057z"
		/>
	<path fill="#673A15" d="M209.172,174.657l-0.272,0.19c0.14-0.049,0.212,0.067,0.3,0.147
		C209.17,174.863,209.081,174.679,209.172,174.657z"/>
	<path fill="#673A15" d="M212.516,177.62c0.029-0.079,0.095-0.028,0.123-0.109l-0.067-0.259
		C212.379,177.311,212.288,177.551,212.516,177.62z"/>
	<path fill="#673A15" d="M209.784,176.504c0.109,0.475,0.275,0.283,0.475,0.143c-0.012,0.005-0.024,0.013-0.038,0.009
		C210.16,175.97,209.974,176.254,209.784,176.504z"/>
	<path fill="#673A15" d="M210.305,176.621c0.063-0.037,0.129-0.064,0.198-0.056C210.479,176.293,210.412,176.527,210.305,176.621z"
		/>
	<path fill="#673A15" d="M207.394,175.589c0.118,0.108-0.021-0.625,0.062-0.438C207.485,174.522,206.892,175.992,207.394,175.589z"
		/>
	<polygon fill="#673A15" points="210.022,177.966 210.247,178.049 210.06,177.472 	"/>
	<path fill="#673A15" d="M208.427,177.877l0.378,0.111c-0.02-0.098,0.014-0.163,0.063-0.215
		C208.646,177.785,208.392,177.704,208.427,177.877z"/>
	<path fill="#673A15" d="M209.135,177.633c-0.061,0.015-0.187,0.054-0.267,0.141C208.983,177.767,209.089,177.739,209.135,177.633z"
		/>
	<polygon fill="#673A15" points="209.408,178.186 209.791,178.299 209.664,178.191 	"/>
	<path fill="#673A15" d="M204.619,178.185l-0.377,0.203c-0.027,0.207,0.088,0.324,0.228,0.232
		C204.555,178.469,204.691,178.379,204.619,178.185z"/>
	<path fill="#673A15" d="M205.775,180.029l0.164-0.301c-0.119-0.115-0.141-0.248-0.218-0.439L205.775,180.029z"/>
	<path fill="#673A15" d="M204.78,179.993c-0.025,0.208-0.554,0.636-0.04,0.549C204.771,180.335,205.163,180.133,204.78,179.993z"/>
	<polygon fill="#673A15" points="198.868,178.976 198.975,177.762 198.768,178.977 	"/>
	<path fill="#673A15" d="M192.911,180.898c0.419,0.394,0.289-0.704,0.64-0.253c0.178-0.255-0.284-0.368-0.112-0.585
		C193.079,180.292,192.967,180.09,192.911,180.898z"/>
	<path fill="#673A15" d="M193.438,180.061c0.057-0.036,0.12-0.081,0.189-0.147C193.528,179.969,193.474,180.017,193.438,180.061z"/>
	<polygon fill="#673A15" points="135.803,171.533 135.521,171.272 135.694,171.686 	"/>
	<path fill="#673A15" d="M135.207,172.423l-0.038-0.776l-0.205,0.698C135.032,172.312,135.163,172.248,135.207,172.423z"/>
	<path fill="#673A15" d="M175.335,177.55l0.178,0.456l0.039-0.186C175.526,177.614,175.464,177.594,175.335,177.55z"/>
	<polygon fill="#673A15" points="171.709,177.179 171.775,177.198 171.681,176.491 	"/>
	<path fill="#673A15" d="M168.413,177.96c0.134,0.028,0.295-0.129,0.427-0.092C168.549,177.981,168.388,177.09,168.413,177.96z"/>
	<path fill="#673A15" d="M31.257,174.258c0.293,0.035,0.448-0.527,0.389-0.41C31.528,173.732,31.325,174.191,31.257,174.258z"/>
	<polygon fill="#673A15" points="34.366,174.287 34.941,174.032 34.504,174.13 	"/>
	<path fill="#673A15" d="M35.559,174.533l0.027-0.206l-0.491,0.513c0.509,0.173,1.336,0.067,1.567,0.438
		C36.84,174.411,35.794,175.026,35.559,174.533z"/>
	<path fill="#673A15" d="M36.813,177.282c0.011,0.045,0.01,0.068,0.015,0.1c0.051,0.02,0.118,0.053,0.222,0.129
		C37.118,177.175,37.436,177.378,36.813,177.282z"/>
	<path fill="#673A15" d="M36.829,177.382C36.577,177.289,36.863,177.71,36.829,177.382L36.829,177.382z"/>
	<path fill="#673A15" d="M37.575,177.858c-0.017,0.208,0.248,0.384,0.083,0.463c0.395,0.01,0.406-0.201,0.356-0.582L37.575,177.858z
		"/>
	<path fill="#673A15" d="M38.569,177.314l-0.214,0.037C38.35,177.438,38.381,177.485,38.569,177.314z"/>
	<path fill="#673A15" d="M38.158,177.362c0.133-0.217-0.035-0.028-0.257,0.065l0.455-0.076
		C38.367,177.203,38.478,176.949,38.158,177.362z"/>
	<path fill="#673A15" d="M37.925,176.632c-0.644-0.178-0.816,0.404-0.165,0.584C37.663,176.964,37.487,176.749,37.925,176.632z"/>
	<path fill="#673A15" d="M37.169,174.54l-0.116-0.332l-0.325,0.162C36.892,174.29,37.064,174.787,37.169,174.54z"/>
	<path fill="#673A15" d="M39.854,179.016c0.089-0.16,0.075-0.492,0.139-0.717l-0.321,0.096
		C39.747,178.559,39.94,178.76,39.854,179.016z"/>
	<path fill="#673A15" d="M39.993,178.299l0.478-0.144C40.165,177.992,40.05,178.105,39.993,178.299z"/>
	<polygon fill="#673A15" points="38.181,176.803 39.124,176.52 39.013,176.476 	"/>
	<polygon fill="#673A15" points="40.88,179.904 41.477,179.459 41.239,179.595 	"/>
	<path fill="#673A15" d="M42.189,179.894c-0.275,0.273,0.018,0.629-0.222,0.773c0.285,0.027,0.61-0.183,0.897-0.373
		C42.603,180.368,42.386,180.257,42.189,179.894z"/>
	<path fill="#673A15" d="M43.325,180.031c-0.132,0.046-0.29,0.152-0.46,0.263C43.003,180.255,43.152,180.181,43.325,180.031z"/>
	<path fill="#673A15" d="M41.143,179.08l0.042-0.533c-0.042-0.02-0.088-0.042-0.138-0.064
		C41.036,178.596,40.983,178.886,41.143,179.08z"/>
	<path fill="#673A15" d="M41.185,178.547c0.148,0.075,0.251,0.126,0.296,0.148c-0.038-0.021-0.125-0.069-0.293-0.166L41.185,178.547
		z"/>
	<path fill="#673A15" d="M41.012,178.467l0.035,0.016C41.052,178.432,41.05,178.411,41.012,178.467z"/>
	<path fill="#673A15" d="M40.36,176.44c-0.285,0.263-0.142,0.587-0.624,0.856C40.06,177.12,40.604,177.008,40.36,176.44z"/>
	<path fill="#673A15" d="M40.741,177.544c-0.044,0.127-0.049,0.337-0.206,0.428l0.537-0.169L40.741,177.544z"/>
	<polygon fill="#673A15" points="41.318,177.726 41.073,177.803 41.197,177.899 	"/>
	<path fill="#673A15" d="M42.799,179.36c0.246-0.155,0.437-0.113,0.657-0.08c-0.192-0.167-0.406-0.293-0.626-0.363
		C42.746,179.059,42.552,179.298,42.799,179.36z"/>
	<path fill="#673A15" d="M42.024,178.927l0.046-0.014C42.063,178.864,42.049,178.843,42.024,178.927z"/>
	<path fill="#673A15" d="M45.523,179.946c-0.002-0.032-0.005-0.068-0.007-0.1l-0.033,0.082L45.523,179.946z"/>
	<path fill="#673A15" d="M42.824,178.816c-0.136-0.146-0.277-0.062-0.423,0.046c0.138,0.005,0.284,0.012,0.429,0.055
		C42.869,178.854,42.886,178.811,42.824,178.816z"/>
	<path fill="#673A15" d="M43.984,179.991c-0.056-0.129-0.129-0.248-0.208-0.361C43.811,179.812,43.911,180.108,43.984,179.991z"/>
	<path fill="#673A15" d="M42.077,179.067c-0.011,0.005-0.022,0.012-0.032,0.013C42.06,179.205,42.072,179.15,42.077,179.067z"/>
	<path fill="#673A15" d="M42.077,179.067c0.11-0.035,0.221-0.127,0.325-0.205c-0.113-0.002-0.225,0.013-0.331,0.051
		C42.078,178.955,42.08,179.016,42.077,179.067z"/>
	<path fill="#673A15" d="M47.375,177.217l-0.51,0.191c0.027-0.132,0.239-0.303,0.153-0.451c-0.152,0.459-0.701,0.768-0.918,0.153
		c-0.456,0.227-0.675,1.793-0.583,2.736c0.067-0.197,0.121-0.374,0.582-0.529c-0.069-0.286-0.675-0.849-0.239-1.156
		c0.563-0.077,0.357,0.296,0.541,0.596C46.35,178.138,47.271,178.084,47.375,177.217z"/>
	<path fill="#673A15" d="M44.79,179.563l-0.177,0.004c0.158,0.139,0.232,0.361,0.371,0.794c0.333-0.137,0.437-0.288,0.5-0.433
		l-0.769-0.315L44.79,179.563z"/>
	<path fill="#673A15" d="M44.563,178.198c-0.467-0.112-0.453,0.306-0.799,0.43c0.787,0.119-0.308,0.203,0.145,0.655
		c-0.176,0.035-0.319,0.017-0.453-0.003c0.116,0.103,0.224,0.221,0.319,0.35l-0.008-0.036l-0.004,0.001l0.002-0.008
		c-0.012-0.071-0.011-0.112,0.014-0.064c0.005-0.006,0.014-0.005,0.019-0.005c0.028-0.066,0.062-0.121,0.096-0.175
		c0.186,0.173-0.007,0.139-0.096,0.175l-0.033,0.069l0.001,0.007l0.845-0.026c-0.139-0.119-0.343-0.169-0.718-0.227
		C44.182,178.892,44.624,178.803,44.563,178.198z"/>
	<path fill="#673A15" d="M41.164,175.568c0.004,0.052-0.009,0.085-0.023,0.12C41.211,175.647,41.244,175.615,41.164,175.568z"/>
	<path fill="#673A15" d="M40.945,176.203c0.215,0.276,0.346,1.021,0.27,1.067c0.087-0.466,0.137-0.801,0.12-1.298
		c-0.078,0.046-0.198,0.219-0.346,0.104c-0.085-0.2,0.096-0.228,0.152-0.388c-0.151,0.087-0.493,0.2-0.273,0.559L40.945,176.203z"/>
	<path fill="#673A15" d="M43.311,177.556l-0.156-0.523l-0.077,0.258c-0.299-0.232-0.341,0.106-0.454,0.282c0,0,0.171,0,0.341,0
		C43.138,177.564,43.311,177.556,43.311,177.556z"/>
	<polygon fill="#673A15" points="45.29,180.711 45.869,180.087 45.525,180.215 	"/>
	<polygon fill="#673A15" points="46.23,180.824 46.528,180.603 46.383,180.375 	"/>
	<path fill="#673A15" d="M91.129,172.918l-0.019,0.234C91.165,173.021,91.183,172.925,91.129,172.918z"/>
	<path fill="#673A15" d="M67.279,181.132c0.32,0.404,0.703,1.049,0.605,0.523l-0.143-0.505
		C67.563,181.266,67.414,181.228,67.279,181.132z"/>
	<path fill="#673A15" d="M80.456,176.432c-0.029-0.048-0.061-0.1-0.09-0.149c-0.049,0.183-0.094,0.352-0.135,0.509
		C80.3,176.681,80.376,176.559,80.456,176.432z"/>
	<path fill="#673A15" d="M80.836,174.581c-0.089-0.11-0.215-0.212-0.385-0.303L80.836,174.581z"/>
	<path fill="#673A15" d="M99.669,171.864l0.183-0.54C99.516,171.346,99.679,171.604,99.669,171.864z"/>
	<path fill="#673A15" d="M55.192,181.588c0.233,0.214,0.425,0.299,0.597,0.329C55.504,181.611,55.292,181.165,55.192,181.588z"/>
	<path fill="#673A15" d="M92.431,178.067c-0.109,0.098-0.168,0.2-0.136,0.326C92.401,178.292,92.442,178.184,92.431,178.067z"/>
	<path fill="#673A15" d="M56.499,181.932c-0.041-0.053-0.083-0.08-0.126-0.124c-0.182,0.083-0.366,0.147-0.584,0.109
		C55.998,182.145,56.248,182.287,56.499,181.932z"/>
	<path fill="#673A15" d="M126.148,171.332c0.019,0.025,0.042,0.035,0.06,0.063C126.214,171.325,126.188,171.321,126.148,171.332z"/>
	<path fill="#673A15" d="M133.729,176.669c-0.076,0.03-0.197,0.03-0.312,0.035C133.471,176.74,133.565,176.738,133.729,176.669z"/>
	<path fill="#673A15" d="M49.763,181.357C49.574,181.36,49.725,181.408,49.763,181.357L49.763,181.357z"/>
	<path fill="#673A15" d="M49.279,179.191c0.048-0.048,0.091-0.114,0.119-0.229C49.359,179.081,49.319,179.151,49.279,179.191z"/>
	<path fill="#673A15" d="M58.298,178.737l0.015,0.002C58.26,178.638,58.27,178.657,58.298,178.737z"/>
	<path fill="#673A15" d="M49.53,181.081c0.058,0.073,0.127,0.138,0.207,0.189C49.706,181.224,49.644,181.164,49.53,181.081z"/>
	<path fill="#673A15" d="M49.522,181.327c-0.061-0.031-0.106-0.053-0.151-0.075C49.332,181.332,49.343,181.391,49.522,181.327z"/>
	<path fill="#673A15" d="M50.024,181.371c-0.107-0.009-0.201-0.049-0.287-0.101c0.029,0.04,0.04,0.07,0.026,0.087
		C49.819,181.359,49.896,181.364,50.024,181.371z"/>
	<path fill="#673A15" d="M111.997,173.022c0.011,0.016,0.025,0.027,0.038,0.048C112.2,172.849,112.125,172.887,111.997,173.022z"/>
	<path fill="#673A15" d="M71.059,175.221c-0.007,0.005-0.01,0.02-0.017,0.026l0.028,0.016L71.059,175.221z"/>
	<path fill="#673A15" d="M71.621,174.757c-0.177,0.674-0.336,0.615-0.551,0.506l0.394,1.456L71.621,174.757z"/>
	<path fill="#673A15" d="M134.804,172.905c-0.492,1.009-1.161-1.519-1.959-0.075c-0.16-0.236,0.151-0.367,0.071-0.634
		c-0.205,0.488-0.438,0.587-0.859,0.361l0.051-0.12c-1.202,0.104-1.707-0.388-3.055-0.728l0.093,0.567
		c-0.289-0.079-0.347-0.258-0.481-0.402c-0.344,0.854,0.814,0.061,0.497,1.002c-0.369-1.157-2.039-0.044-2.292-1.356
		c-0.447-0.013,0.129,0.657-0.318,0.644l-0.118-0.355l-0.113,0.454c-0.291-0.078-0.438-0.523-0.45-0.824
		c0.072,0.038,0.202-0.08,0.279-0.106c-0.381-0.422-1.073,0.128-1.204-0.009l0.431,0.225c-1.217,0.326-2.716-0.201-3.876,0.587
		l0.094,0.266c-0.886,0.522-0.722-0.271-1.701-0.01l0.035-0.065c-0.191,0.273-0.451,0.416-0.72,0.395
		c0.241-0.321-0.48-0.593-0.163-0.951c-0.959,0.563-0.472,0.435-1.086,1.447l-0.161-0.438c-0.206,0.407-0.219,0.619-0.705,0.751
		c0.391-0.395-0.332-0.666,0.104-1.184c-1.06-0.937-1.499,1.028-2.018-0.373c-0.431,1.242,0.914,0.651,0.658,0.923
		c0.235,0.395-0.359,0.93-0.686,0.817c-0.328-0.017-0.612-1.551-1.441-1.501c0.084,0.003,0.086-0.09,0.167-0.088
		c-0.322-0.302-0.59,0.443-0.991-0.052c-0.184,0.749-0.495-0.026-0.518,0.921l0.75-0.243c-0.422,0.262-0.778,1.382-1.507,0.867
		c0.047-0.192,0.245-0.45,0.386-0.595c-0.22-0.272-0.392,0.198-0.62-0.081c0.021-0.949,0.914-0.235,1.346-0.973
		c-0.239-0.393-0.845,0.714-0.655-0.319c-0.278,1.314-0.826-0.137-1.342,0.876l0.012-0.568c-0.085,0.093-0.257,0.367-0.42,0.357
		l0.262-0.745c-0.425,0.644-0.904-0.522-1.324-0.16c0.912-0.055,0.238,0.675,0.644,1.073c-1.062,0.783-0.737-1.348-1.885-1.122
		c0.201,0.019,0.549,0.351,0.327,0.593c-0.244-0.102-0.57-0.301-0.733-0.591c-0.825,0.167,0.159,0.576-0.177,0.945
		c-0.319-0.674-0.393,0.306-0.746,0.548l-0.033-0.575c-0.967-0.314-0.187,1.215-1.063,0.819l0.318-0.821l-0.435,0.234l0.058-0.661
		c-0.457,0.515-0.615,0.397-1.099,0.241c0.133,0.399-0.003,1.05-0.421,1.092c-0.306-0.324,0.129-0.557-0.46-0.438
		c0.112-0.369,0.234-0.83,0.523-0.314c0.017-0.189,0.112-0.369,0.129-0.557c-0.33-0.376-0.779-0.044-0.994-0.027
		c0.084,0.019,0.185,0.043,0.241,0.123l-0.816,0.849c-0.147-0.208-0.05-0.389,0.047-0.565c-0.171,0.073-0.277,0.345-0.531,0.41
		c0.04-0.474-0.004-0.955,0.346-1.198l-0.792,0.569c-0.066-0.201-0.455-0.535-0.358-0.713c-0.473-0.248-1.062,0.975-1.689,0.646
		c-0.025,0.094-0.083,0.183-0.208,0.258c-0.573-0.072-1.113-0.616-1.745,0.065l-0.436-0.817c-0.515,0.222,0.585,1.026-0.272,1.396
		c-0.603,0.304-0.278-0.701-0.512-0.923c-0.28,0.442-0.757,1.338-1.371,0.692c0.177-0.171,0.333-0.056,0.504-0.13l-0.463-0.438
		c0.472-0.8,0.867-0.56,0.418-1.188c0.044,1.625-1.672,0.275-1.626,1.898l-0.309-0.323c0.084,0.012,0.091-0.085,0.173-0.074
		c-0.607-0.74-0.336,1.199-1.066,1.014c-0.257-0.107-0.447-0.332-0.29-0.534l-0.529,0.436c-0.164-0.021-0.143-0.305,0.021-0.283
		l-0.838,0.184l0.002-0.049c-0.104,0.264-0.352,0.674-0.475,0.85c-0.23-0.218,0.097-0.178,0.028-0.377l-0.443,0.423
		c-0.218-0.407,0.144-0.84,0.471-0.801c-0.544-1.591-0.362,0.433-1.369-0.451l0.428-0.235c-0.346-0.899-0.669-0.544-1.208-1.086
		c0.139,0.292,1.097,1.381,0.615,1.817c-0.152-0.113-0.346-0.16-0.598,0.185c-0.041-0.575-0.299-0.417-0.633-0.363l-0.027-0.765
		c-0.349,0.244-0.294,0.631-0.484,0.989c-0.409-0.049-0.533-0.635-0.66-1.127c-0.655-0.079,0.509,0.919-0.248,1.111
		c-0.557-0.257-0.914,0.08-1.528,0.578c-0.395-0.237,0.035-0.47-0.115-0.681l-0.294,0.631c-0.082-0.01-0.068-0.198-0.061-0.293
		c-0.266,0.255,0.027,0.765-0.401,1.001c-0.062,0.847-0.991-1.172-1.486-0.163c-0.153-0.207,0.033-0.475-0.03-0.766
		c-0.72,0.691-0.625,0.51-1.181,1.405l-0.576-0.454c0.442,0.539,0,1.258-0.381,1.851c0.164,0.266,0.302,0.498,0.391,0.604
		l-0.647,0.469c-0.094-0.119-0.051-0.386,0.032-0.714c-0.041,0.067-0.079,0.132-0.108,0.193c-0.272-0.261-0.189-0.71-0.052-1.152
		c0.096,0.146,0.195,0.299,0.295,0.45c0.125-0.479,0.24-1.004,0.166-1.447c-0.038,0.093-0.119,0.176-0.21,0.226
		c0.033-0.129,0.051-0.244,0.024-0.318c-0.031-0.078-0.089,0.096-0.185,0.301l-0.238-0.836l-0.007,0.341l-0.966-0.439
		c-0.566,0.925-0.994,2.243-1.976,2.703c0.184-0.649-0.061-1.021-0.131-1.759c0.37,0.749,0.762-0.417,1.315-0.317
		c-0.287-0.053-0.264-0.409-0.206-0.541l-0.878,0.813c-0.045-0.604-0.252-0.429-0.531-0.65c0.325,1.169-0.62,0.867-0.96,1.284
		c-0.071-0.396-0.028-0.815,0.454-0.777c-0.626-0.832-0.504,1.479-1.104,0.782c0.113-0.023,0.184,0.029,0.205-0.178
		c-0.226,0.388-0.916,0.187-0.804-0.18l0.113-0.023c-0.783-0.047-2.322,0.282-2.302,1.307c-0.023-0.129-0.057-1.229-0.038-1.438
		l-0.913,3.571c0.007-0.882-0.717-2.887-0.152-3.458c-0.197-0.1-0.439-0.215-0.779,0.141c0.139,0.107,0.469,1.213,0.311,1.314
		c-0.586-0.906-0.388-0.476-1.062-1.224c0.207,0.163,0.18,1.548-0.117,1.541c0.019-0.209-0.196-1.339-0.11-1.493l-0.551,1.424
		c0.15-0.263-0.111-1.135-0.319-1.492c0.107,0.253-0.625,0.055-0.8,0.21l0.343,0.272c-0.837-0.104-0.576,1.981-1.396,2.005
		c0.065-0.287,0.04-1.724-0.386-1.849c-0.105,0.704-0.461,3.383-1.144,3.99l-0.178-0.378l-0.517,0.507
		c0.255-1.07,0.994-3.343,1.412-4.242c-0.335-0.276-0.136-0.452-0.582-0.368c-0.197-0.35,0.186-0.584,0.314-0.618l-1.067-0.125
		c0.13,0.796-0.719,0.889-0.614,1.552l1.056-0.953c0.133,0.791-0.427,2.349-1.199,2.277c-0.219-0.304,0.011-1.438-0.032-1.703
		c-0.068,0.283-0.654,0.581-0.738,0.392l0.276-0.453c-0.433-0.27-0.585,1.115-1.139,0.387c-0.176-0.037-0.578-0.992-0.575-0.517
		c0.333,0.896,0.593,3.722,0.444,4.423c-0.069-0.056-0.996-0.798-1.219-1.256c-0.321-0.709,0.341-1.727,0.064-2.336
		c0.002,0.22-0.141,0.495-0.201,0.585c-0.189-0.181,0.04-0.683-0.342-0.57c-0.029,0.817-0.795-0.042-0.155,0.696
		c-0.376,0.244-0.413-0.155-0.862-0.104c0.161,0.521-0.365,1.807-0.765,2.052c0.021-0.208-0.072-0.474-0.115-0.596
		c-0.807-0.085-1.231-0.47-1.973-0.49c-0.063-0.198-0.409-0.445-0.243-0.794c-0.111,0.144-0.22,0.416-0.449,0.433
		c-0.403-0.714,0.509-0.101,0.215-0.952c-0.05,0.48-0.612,0.636-0.953,0.892c0.051,0.745,0.744,0.206,1.077-0.097
		c-0.037,1.011-0.66,2.066-1.509,2.445c-0.666,0.194-0.227-0.676-0.35-0.541c-1.17-0.29-1.215,1.685-2.146,0.826
		c-0.314-0.702,0.152-1.272,0.125-1.745c0.533-0.149,0.732,0.498,1.084,0.509l-0.393-0.34c0.188-0.198,0.542-0.33,0.709-0.128
		c-0.133-0.31-0.624-0.354-1.181-0.462c-0.555-0.111-1.186-0.23-1.583-0.565c-0.191,0.188-0.507,0.364-0.423,0.639l0.3-0.042
		c0.177,0.553-0.664,0.619-0.342,0.916c-0.451,0.291-1.015,0.804-1.502,0.369l0.052-0.741c-0.035,0.212,0.264,0.512,0.461,0.33
		c-0.297,0.262-0.615-1.168-1.071-0.29l0.271,0.587c-0.467,0.268-1.143,0.905-1.585,0.562c0.05,0.756,0.132-0.054,0.286,0.854
		c-0.061-1.099,1.272,0.349,1.024-0.85c0.151,1.043,0.532,0.566,0.85,1.484c0.032-0.239-0.083-0.483,0.324-0.295
		c0.032-0.066,0.095-0.147,0.133-0.195c0.011,0.011,0.015,0.014,0.025,0.024l-0.017-0.033c0.024-0.033,0.028-0.04-0.007-0.01
		c-0.083-0.121-0.14-0.26-0.148-0.398c0.316-0.51,0.976-0.387,1.247-0.632c0.229,0.152-0.15,0.256-0.056,0.532l0.404-0.37
		c-0.054,0.536,0.535,0.99-0.11,1.204l0.536,0.11c0.274,0.344,0.702,0.552,1.002,0.34c0.247,0.14,0.711-0.532,0.445-0.135
		l0.881-0.256l-0.005,0.134c0.844,0.146,1.761-0.729,2.671,0.24c0.286-0.131,0.576-0.289,1.043-0.127l0.087,0.467
		c0.363-0.146,1.094,0.479,1.239-0.021c0.414,1.238,1.759,0.215,2.396,0.415l-0.009-0.607c0.431,0.01,0.827-0.198,1.336-0.48
		l-0.072-0.533c0.415-0.475,1.19,0.295,1.9,0.177c-0.028,0.211-0.215,0.174-0.355,0.059c0.971,1.127,1.689-1.063,2.544-0.266
		c0.168-0.215,0.313-0.163,0.462-0.043c-0.018,0.003-0.033,0.015-0.044,0.031c0.021,0.005,0.049,0.003,0.079-0.001
		c0.095,0.082,0.196,0.181,0.297,0.254c-0.094-0.119-0.183-0.219-0.255-0.261c0.147-0.023,0.356-0.121,0.556-0.28l0.161,0.56
		c0.016-0.01,0.03-0.01,0.046-0.021c0.239,0.185,0.138-0.293-0.028-0.709c0.098-0.106,0.183-0.233,0.243-0.38
		c0.285,0.901,0.525-0.381,0.88,0.572c0.085-0.496,1.037-0.495,1.021-1.519c0.024,0.13,0.095,0.186-0.02,0.207
		c0.255,0.087,0.506,0.169,0.682-0.143l0.195,0.713l0.391-1.044c0.373,0.401,0.537,0.642,0.296,1.241
		c0.645-0.958,0.571-0.403,1.103-1.34l0.031,0.476c0.227-0.048,0.512-0.726,0.7-0.354c0.624,0.834,2.55-0.201,3.953,0.486
		c-0.411-1.356,0.677,0.556,0.608-0.523c0.112,0.319,0.314,0.484,0.135,0.792c0.63-0.394,1.051,0.412,1.418-0.544
		c0.108,0.321-0.094,0.497-0.007,0.684c0.046-0.076,0.182-0.308,0.271-0.119c0.088,0.188-0.069,0.285-0.159,0.44
		c0.671-0.131,0.64-1.146,0.598-2.099c0.388,0.421,0.553,0.343,0.747-0.303c0.148,0.302,0.377,0.608-0.035,0.757
		c0.244,0.024,1.487,0.332,1.452-0.433c0.09,0.188,0.336,0.028,0.394-0.065c0.539,0.002,0.587,0.063,1.111-0.049l-0.155-0.115
		c0.148-0.935,0.429-0.234,0.852-0.373l-0.006,0.096c1.029,0.6,0.404-0.346,1.426,0.349l-0.091-0.569
		c0.009-1.236,0.908,0.671,1.441,0.164l-0.225-0.314c0.281-0.441,0.972,1.618,1.291,1.752c0.074,0.104-0.094,0.18-0.184,0.265
		c0.858,0.673,0.055-0.758,0.648-0.97c0.138,0.396-0.076,1.037,0.335,1.086c0.223,0.314,1.092-1.389,1.697-0.649
		c-0.142-0.304-0.285-0.607-0.02-0.859c0.422-0.14,1.24,1.103,1.562,0.095c0.061,0.081,0.086,0.162,0.094,0.238
		c0.313-0.273,1.04-0.49,1.203-1.035c0.434,1.957,1.979-1.093,2.091,0.729l1.004-0.163l-0.014,0.188
		c0.652,0.082,0.851-0.369,1.049-0.819c0.156,0.116,0.06,0.292,0.054,0.388c0.965,0.312,1.052,0.229,1.786-0.727l0.118,0.588
		c0.194-0.357,1.418,0.847,2.298,0.103c-0.004,0.066-0.016,0.184-0.084,0.271c0.999-0.756,2.577,1.495,2.837-0.684l0.656-0.572
		c-0.897-0.115,0.081-0.942-0.304-1.279c0.342-0.147,0.939,0.596,0.515,0.732l-0.073-0.104c-0.097,1.134,1.125,0.334,1.142,1.1
		c1.743-0.164,3.476,0.359,5.104,0.372l-0.227-0.868l0.572,0.031c0.159,0.199,0.229,0.677-0.177,0.654
		c0.233,0.489,0.662-0.438,0.667-0.628c0.81,0.329-0.27,1.03-0.024,1.044l0.328-0.077l-0.078-0.1
		c0.252-0.366,0.262-0.745,0.752-0.719c0.316,0.167,0.179,0.535,0.302,0.564c0.002,0.062,0.044,0.09,0.187,0.019l0.719,0.052
		l-0.311-0.681c0.305-0.351,0.675,0.014,0.316-0.758c0.528,1.19,2.692,0.346,3.002,0.711c0.432-0.518,0.873-0.523,1.419-0.481
		c-0.139-0.139-0.237-0.912,0.236-0.832c-0.138,1.607,0.876,0.666,1.277,1.807c-0.354-0.754,1.331-0.232,0.78-1.301
		c0.395,0.117,0.034,0.599,0.336,0.966c0.927-0.675,2.055,0.408,3.2,0.201c0.018-0.21-0.177-0.535,0.069-0.845l0.608,1.062
		c0.227-0.102,0.211-1.213,0.624-0.478c-0.058-0.177-0.146-0.444,0.007-0.51c2.241,1.055,4.633-0.779,6.868,1.176
		c-0.297-0.411-0.09-0.448,0.147-0.461c-0.151-0.1,0.02-0.52-0.001-0.805l0.932,0.805c0.201-0.789,1.028-0.041,1.157-0.796
		l-0.31,0.132C135.637,175.153,134.703,174.051,134.804,172.905z M51.84,181.216l0.016-0.026
		C52.125,181.46,52.03,181.355,51.84,181.216z M79.396,175.416c0.075-0.199,0.229-0.124,0.414,0.08
		C79.694,175.553,79.559,175.548,79.396,175.416z M89.172,173.301c0.118-0.128,0.343-0.518,0.458-0.185
		C89.529,173.786,89.398,173.479,89.172,173.301z M113.985,176.843l-0.118-0.146C114.115,176.521,114.049,176.675,113.985,176.843z"
		/>
	<path fill="#673A15" d="M107.939,171.372c0.027-0.007,0.049-0.007,0.075-0.012C107.986,171.357,107.959,171.36,107.939,171.372z"/>
	<path fill="#673A15" d="M80.447,174.527c0.045,0.095,0.065,0.2,0.084,0.308C80.57,174.735,80.562,174.623,80.447,174.527z"/>
	<path fill="#673A15" d="M99.634,171.964c0.007,0.004,0.014,0.002,0.021,0.005c0.009-0.035,0.012-0.069,0.014-0.104L99.634,171.964z
		"/>
	<path fill="#673A15" d="M60.5,176.385c0.119,0.08,0.189,0.183,0.238,0.29C60.735,176.533,60.677,176.416,60.5,176.385z"/>
	<path fill="#673A15" d="M47.938,180.9c-0.021,0.133,0.01,0.342-0.113,0.321l0.425-0.053
		C48.053,181.151,48.012,181.013,47.938,180.9z"/>
	<path fill="#673A15" d="M45.494,176.9c-0.072,0.051-0.112-0.028-0.184,0.024l-0.066,0.26
		C45.472,177.24,45.689,177.083,45.494,176.9z"/>
	<path fill="#673A15" d="M47.899,179.268c0.081-0.479-0.19-0.375-0.474-0.351c0.017,0.002,0.032,0.001,0.046,0.011
		C47.229,179.568,47.567,179.418,47.899,179.268z"/>
	<path fill="#673A15" d="M47.359,178.918c-0.086,0.002-0.173-0.005-0.245-0.047C47.016,179.129,47.198,178.951,47.359,178.918z"/>
	<path fill="#673A15" d="M50.432,181.062c-0.109-0.144-0.186,0.599-0.228,0.392C49.959,182.04,51.205,180.857,50.432,181.062z"/>
	<polygon fill="#673A15" points="48.059,177.663 48.011,178.267 48.266,177.831 	"/>
	<path fill="#673A15" d="M49.99,178.542l-0.384-0.23c-0.013,0.1-0.079,0.149-0.15,0.177C49.705,178.56,49.966,178.715,49.99,178.542
		z"/>
	<path fill="#673A15" d="M49.455,178.488c-0.129-0.043-0.257-0.06-0.351,0.02C49.177,178.518,49.335,178.535,49.455,178.488z"/>
	<polygon fill="#673A15" points="49.022,177.882 48.653,177.62 48.746,177.771 	"/>
	<path fill="#673A15" d="M54.475,179.234l0.469-0.132c0.06-0.2-0.056-0.338-0.231-0.271
		C54.595,178.967,54.419,179.03,54.475,179.234z"/>
	<path fill="#673A15" d="M53.499,177.213l-0.239,0.268c0.108,0.134,0.101,0.268,0.15,0.471L53.499,177.213z"/>
	<path fill="#673A15" d="M54.561,177.421c0.062-0.202,0.675-0.535,0.122-0.537C54.624,177.085,54.171,177.217,54.561,177.421z"/>
	<polygon fill="#673A15" points="61.301,178.384 61.186,178.402 61.275,179.617 	"/>
	<path fill="#673A15" d="M66.721,175.884c0.284-0.342,0.473-0.193,0.23-0.97c-0.563-0.225-0.038,0.765-0.557,0.458
		C66.303,175.674,66.818,175.623,66.721,175.884z"/>
	<path fill="#673A15" d="M66.721,175.884c-0.045,0.054-0.093,0.12-0.141,0.205C66.664,176.001,66.701,175.938,66.721,175.884z"/>
	<polygon fill="#673A15" points="134.963,177.338 135.296,177.598 135.09,177.185 	"/>
	<path fill="#673A15" d="M135.657,176.444l0.051,0.776l0.234-0.699C135.863,176.556,135.71,176.62,135.657,176.444z"/>
	<path fill="#673A15" d="M88.408,172.22l-0.3-0.417l-0.014,0.188C88.16,172.189,88.242,172.199,88.408,172.22z"/>
	<polygon fill="#673A15" points="92.841,172.078 92.76,172.068 92.956,172.758 	"/>
	<path fill="#673A15" d="M96.726,170.932c-0.164-0.02-0.343,0.146-0.506,0.129C96.562,170.912,96.827,171.803,96.726,170.932z"/>
</g>
<g>
	<path fill="#96BD0D" d="M144.145,94.83c6.751,11.038,8.57,26.113,8.57,26.113C156.428,105.793,144.145,94.83,144.145,94.83z"/>
	<path fill="#96BD0D" d="M154.313,116.597c0,0-2.815-10.4,7.036-16.86C161.35,99.737,155.495,107.683,154.313,116.597z"/>
	<path fill="#96BD0D" d="M142.051,104.591c0,0,8.623,6.086,10.914,18.544c2.643-14.352,14.245-21.649,14.245-21.649
		c-9.012,8.294-14.593,29.076-14.593,29.076S152.666,119.598,142.051,104.591z"/>
</g>
</svg>
