<svg width="36" height="36" viewBox="0 0 36 36" fill="none" xmlns="http://www.w3.org/2000/svg">
<path d="M30.8 4H5.19999C4.31469 4.04483 3.48305 4.43799 2.88655 5.09369C2.29004 5.7494 1.97709 6.61442 2.01599 7.5L1.99999 28.5C1.96464 29.3873 2.28095 30.2527 2.88016 30.9081C3.47937 31.5635 4.31306 31.9559 5.19999 32H30.8C31.6869 31.9559 32.5206 31.5635 33.1198 30.9081C33.719 30.2527 34.0353 29.3873 34 28.5V7.5C34.0353 6.61268 33.719 5.74726 33.1198 5.09187C32.5206 4.43648 31.6869 4.04409 30.8 4V4ZM30.8 11L18 19.75L5.19999 11V7.5L18 16.25L30.8 7.5V11Z" fill="#527B2D"/>
</svg>
