<svg width="36" height="36" viewBox="0 0 36 36" fill="none" xmlns="http://www.w3.org/2000/svg">
<path d="M9.034 15.984C11.4499 20.7076 15.2924 24.5501 20.016 26.966L23.683 23.3C23.901 23.0817 24.1757 22.9285 24.476 22.8579C24.7764 22.7872 25.0905 22.8018 25.383 22.9C27.3032 23.531 29.3118 23.8516 31.333 23.85C31.7746 23.8511 32.1979 24.0269 32.5102 24.3391C32.8226 24.6512 32.9987 25.0744 33 25.516V31.332C32.9992 31.7738 32.8235 32.1973 32.5113 32.5099C32.1991 32.8225 31.7758 32.9987 31.334 33C27.6128 33.0004 23.9281 32.2677 20.4901 30.8438C17.0522 29.4199 13.9284 27.3327 11.2973 24.7013C8.66609 22.07 6.57908 18.9461 5.15542 15.508C3.73176 12.07 2.99934 8.38515 3 4.664C3.00185 4.2229 3.17803 3.80043 3.49012 3.48871C3.80221 3.17699 4.2249 3.00132 4.666 3H10.5C10.9414 3.00132 11.3644 3.17727 11.6766 3.48942C11.9887 3.80157 12.1647 4.22455 12.166 4.666C12.163 6.68733 12.4838 8.69609 13.116 10.616C13.2104 10.9101 13.2215 11.2247 13.148 11.5247C13.0746 11.8248 12.9195 12.0987 12.7 12.316L9.034 15.984Z" fill="#527B2D"/>
</svg>
