<svg id="phone" xmlns="http://www.w3.org/2000/svg" width="36" height="36" viewBox="0 0 36 36">
  <path id="Tracé_9" data-name="Tracé 9" d="M0,0H36V36H0Z" fill="none"/>
  <path id="Tracé_10" data-name="Tracé 10" d="M9.034,15.984A25.248,25.248,0,0,0,20.016,26.966L23.683,23.3a1.657,1.657,0,0,1,1.7-.4,19.011,19.011,0,0,0,5.95.95A1.671,1.671,0,0,1,33,25.516v5.816A1.671,1.671,0,0,1,31.334,33,28.331,28.331,0,0,1,3,4.664,1.671,1.671,0,0,1,4.666,3H10.5a1.671,1.671,0,0,1,1.666,1.666,18.934,18.934,0,0,0,.95,5.95,1.673,1.673,0,0,1-.416,1.7Z" transform="translate(0 0)" fill="#97bf0d"/>
</svg>
